<?xml version="1.0" encoding="UTF-8" standalone="no"?>
<!-- Created with Inkscape (http://www.inkscape.org/) -->

<svg
   xmlns:dc="http://purl.org/dc/elements/1.1/"
   xmlns:cc="http://creativecommons.org/ns#"
   xmlns:rdf="http://www.w3.org/1999/02/22-rdf-syntax-ns#"
   xmlns:svg="http://www.w3.org/2000/svg"
   xmlns="http://www.w3.org/2000/svg"
   xmlns:sodipodi="http://sodipodi.sourceforge.net/DTD/sodipodi-0.dtd"
   xmlns:inkscape="http://www.inkscape.org/namespaces/inkscape"
   width="210mm"
   height="297mm"
   viewBox="0 0 210 297"
   version="1.1"
   id="svg8"
   inkscape:version="0.92.4 (5da689c313, 2019-01-14)"
   sodipodi:docname="flux capacitor.svg">
  <defs
     id="defs2" />
  <sodipodi:namedview
     id="base"
     pagecolor="#ffffff"
     bordercolor="#666666"
     borderopacity="1.0"
     inkscape:pageopacity="0.0"
     inkscape:pageshadow="2"
     inkscape:zoom="1.979899"
     inkscape:cx="361.32644"
     inkscape:cy="596.9631"
     inkscape:document-units="mm"
     inkscape:current-layer="layer1"
     showgrid="false"
     inkscape:window-width="1920"
     inkscape:window-height="1001"
     inkscape:window-x="-9"
     inkscape:window-y="-9"
     inkscape:window-maximized="1" />
  <metadata
     id="metadata5">
    <rdf:RDF>
      <cc:Work
         rdf:about="">
        <dc:format>image/svg+xml</dc:format>
        <dc:type
           rdf:resource="http://purl.org/dc/dcmitype/StillImage" />
        <dc:title></dc:title>
      </cc:Work>
    </rdf:RDF>
  </metadata>
  <g
     inkscape:label="Calque 1"
     inkscape:groupmode="layer"
     id="layer1">
    <path
       style="fill:none;stroke:#ffffff;stroke-width:0.26458332px;stroke-linecap:butt;stroke-linejoin:miter;stroke-opacity:1"
       d="m 129.45684,75.505952 -46.30208,-0.188989 -7.559522,1.511906 -7.9375,3.590774 -5.480655,5.291666 -4.15774,8.693452 -0.944938,10.772319 0.377976,58.96429 2.078868,12.6622 8.504465,9.4494 7.559524,3.59078 54.995532,1.13393 12.28423,-4.15774 7.18155,-8.69345 2.64583,-10.39435 0.18899,-69.736605 -3.2128,-11.150298 -6.61458,-6.236608 -8.12649,-4.346725 z"
       id="path4533"
       inkscape:connector-curvature="0" />
    <path
       style="fill:none;stroke:#ffffff;stroke-width:0.26458332px;stroke-linecap:butt;stroke-linejoin:miter;stroke-opacity:1"
       d="m 82.319012,82.115299 -5.479023,1.336347 -4.810852,2.405425 -2.939966,3.073601 -4.009043,5.479026 -0.935442,7.483542 v 64.41196 l 1.870887,7.75082 6.013565,6.01356 8.15172,3.34087 49.845772,0.93544 5.87992,-2.93996 5.47903,-5.47903 3.60814,-4.67721 0.26727,-3.74178 0.66817,-69.490073 -2.93996,-6.414469 -5.34539,-5.479025 -6.68174,-3.741774 z"
       id="path4535"
       inkscape:connector-curvature="0" />
    <path
       style="fill:none;stroke:#ffffff;stroke-width:0.26458332px;stroke-linecap:butt;stroke-linejoin:miter;stroke-opacity:1"
       d="m 67.090773,91.900668 3.921504,-1.700893 4.015996,-0.283482 3.874257,1.606399 3.071056,2.976562 1.748139,3.449032 0.330729,3.401784 -1.559153,4.91369"
       id="path4537"
       inkscape:connector-curvature="0" />
    <path
       style="fill:none;stroke:#ffffff;stroke-width:0.26458332px;stroke-linecap:butt;stroke-linejoin:miter;stroke-opacity:1"
       d="m 63.972468,106.78348 0.377979,0.14174 2.409597,2.4096 2.787573,1.46466"
       id="path4539"
       inkscape:connector-curvature="0" />
    <path
       style="fill:none;stroke:#ffffff;stroke-width:0.26458332px;stroke-linecap:butt;stroke-linejoin:miter;stroke-opacity:1"
       d="m 72.854909,111.03571 1.889882,0.0473 1.559152,-0.51972 1.543099,-0.64401"
       id="path4541"
       inkscape:connector-curvature="0"
       sodipodi:nodetypes="cccc" />
    <path
       style="fill:none;stroke:#ffffff;stroke-width:0.26458332px;stroke-linecap:butt;stroke-linejoin:miter;stroke-opacity:1"
       d="m 71.555617,109.64192 -1.063059,-0.0709 -1.299292,0.0236 0.968563,-6.21298 -0.54334,-0.37798 -0.73233,-2.17336 0.661458,-2.291479 1.370164,-1.488282 1.842635,-0.614211 1.606399,-0.02363 1.063059,1.015812 1.08668,1.08668 0.236236,2.33873 -0.354353,1.53553 -0.637834,1.06306 -1.13393,0.61421 -1.110306,6.16574 -1.22842,-0.51972 z"
       id="path4543"
       inkscape:connector-curvature="0" />
    <path
       style="fill:none;stroke:#ffffff;stroke-width:0.26458332px;stroke-linecap:butt;stroke-linejoin:miter;stroke-opacity:1"
       d="m 74.626673,104.06672 0.25986,-1.27561"
       id="path4545"
       inkscape:connector-curvature="0" />
    <path
       style="fill:none;stroke:#ffffff;stroke-width:0.26458332px;stroke-linecap:butt;stroke-linejoin:miter;stroke-opacity:1"
       d="m 73.516367,110.23246 0.02363,0.49615 -0.685083,0.3071"
       id="path4547"
       inkscape:connector-curvature="0" />
    <path
       style="fill:none;stroke:#ffffff;stroke-width:0.26458332px;stroke-linecap:butt;stroke-linejoin:miter;stroke-opacity:1"
       d="m 69.193266,109.59462 -0.318918,0.40166 0.673269,0.8032 0.276547,-0.42043 0.952148,-0.28397 1.069078,0.0668 0.551243,0.35079 0.458281,0.52302"
       id="path4549"
       inkscape:connector-curvature="0" />
    <path
       style="fill:none;stroke:#ffffff;stroke-width:0.26458332px;stroke-linecap:butt;stroke-linejoin:miter;stroke-opacity:1"
       d="m 77.847042,109.91928 -2.978165,-3.79983"
       id="path4551"
       inkscape:connector-curvature="0"
       sodipodi:nodetypes="cc" />
    <path
       style="fill:none;stroke:#ffffff;stroke-width:0.26458332px;stroke-linecap:butt;stroke-linejoin:miter;stroke-opacity:1"
       d="m 76.75279,100.85392 19.798326,19.34729 -0.267271,1.20271 9.020345,8.21854 8.8199,-8.35218 -0.13901,-1.26953 18.7381,-18.43709"
       id="path4553"
       inkscape:connector-curvature="0"
       sodipodi:nodetypes="ccccccc" />
    <path
       style="fill:none;stroke:#ffffff;stroke-width:0.26458332px;stroke-linecap:butt;stroke-linejoin:miter;stroke-opacity:1"
       d="m 77.847041,109.91928 14.851618,13.77863 0.897694,0.0473 9.302417,8.81726 0.4009,12.56167 -0.86863,0.20045 0.13364,5.3788"
       id="path4555"
       inkscape:connector-curvature="0" />
    <path
       style="fill:none;stroke:#ffffff;stroke-width:0.26458332px;stroke-linecap:butt;stroke-linejoin:miter;stroke-opacity:1"
       d="m 107.84325,150.63652 -0.0334,-5.17834 -0.90203,-0.56795 0.16704,-12.2944 9.24732,-8.85067 1.44104,0.16537 17.69401,-17.83576"
       id="path4557"
       inkscape:connector-curvature="0" />
    <path
       style="fill:none;stroke:#ffffff;stroke-width:0.26458332px;stroke-linecap:butt;stroke-linejoin:miter;stroke-opacity:1"
       d="m 78.713541,150.39248 52.538689,0.33073 -0.14174,5.5279 -52.349703,-0.85044 z"
       id="path4559"
       inkscape:connector-curvature="0" />
    <path
       style="fill:none;stroke:#ffffff;stroke-width:0.26458332px;stroke-linecap:butt;stroke-linejoin:miter;stroke-opacity:1"
       d="m 97.854054,183.57749 -1.403164,-1.5368 -1.369756,-2.43883 -0.467723,-2.40543 0.06682,-3.14042 0.968851,-3.14041 1.837479,-2.37202 2.372018,-2.17156 2.305201,-1.03567 1.00226,0.33408 h 2.40542 l 3.0736,0.10023 2.80633,1.33635 1.73725,1.5702 1.87089,2.63929 0.53454,2.47225 0.16704,2.07133 -0.46772,-0.10022 -0.60136,0.70158 -0.13363,1.06908 0.26727,1.20271 0.3675,0.23386 -0.66818,1.73725 -1.57021,2.13816 -1.40316,1.16931"
       id="path4561"
       inkscape:connector-curvature="0" />
    <path
       style="fill:none;stroke:#ffffff;stroke-width:0.26458332px;stroke-linecap:butt;stroke-linejoin:miter;stroke-opacity:1"
       d="m 102.39764,155.78146 -0.23386,9.55489"
       id="path4563"
       inkscape:connector-curvature="0" />
    <path
       style="fill:none;stroke:#ffffff;stroke-width:0.26458332px;stroke-linecap:butt;stroke-linejoin:miter;stroke-opacity:1"
       d="m 107.97689,156.01532 v 9.65511"
       id="path4565"
       inkscape:connector-curvature="0" />
    <path
       style="fill:none;stroke:#ffffff;stroke-width:0.26458332px;stroke-linecap:butt;stroke-linejoin:miter;stroke-opacity:1"
       d="m 115.76111,175.86008 v 0 l 12.69531,1.40317 h 2.83973 l 0.53454,-0.0668 -0.0334,-0.50113 0.83522,-0.80181 1.50339,-0.26727 0.96885,0.60136 0.70159,1.06908 0.26727,1.13589 -0.53454,1.06908 -1.36976,0.63477 -1.46998,0.26727 -5.67948,-0.16705 -5.61266,-0.23386 -6.21401,-1.03567"
       id="path4567"
       inkscape:connector-curvature="0" />
    <path
       style="fill:none;stroke:#ffffff;stroke-width:0.26458332px;stroke-linecap:butt;stroke-linejoin:miter;stroke-opacity:1"
       d="m 115.29339,175.75986 -0.4595,-0.89342 -5.76414,-0.87407 -0.66146,-0.96856 -2.17336,-0.51972 -1.53553,-0.0709 -2.43322,1.01581 -0.87407,1.63002 -0.16536,1.98438 0.56696,1.55915 1.41741,0.87407 1.84264,0.37797 1.37016,-0.25985 1.06306,-0.61421 0.75595,-0.40161 6.18936,0.70871 0.39338,-0.57443"
       id="path4569"
       inkscape:connector-curvature="0" />
    <path
       style="fill:none;stroke:#ffffff;stroke-width:0.26458332px;stroke-linecap:butt;stroke-linejoin:miter;stroke-opacity:1"
       d="m 114.83389,174.86644 -0.73233,1.25205 -0.0473,1.55915 0.37798,1.62999"
       id="path4571"
       inkscape:connector-curvature="0" />
    <path
       style="fill:none;stroke:#ffffff;stroke-width:0.26458332px;stroke-linecap:butt;stroke-linejoin:miter;stroke-opacity:1"
       d="m 69.547617,110.79948 -0.759124,4.52406 -0.434313,5.04471 0.06682,4.44336 -0.05455,5.40639 0.803199,2.55134 2.267857,1.74814 2.267858,-0.0945 0.94494,-0.14174 0.897692,-0.51972 0.377978,-0.89769 -0.8032,-1.41741 -1.700893,-0.37798 -0.188989,0.66146 -0.992188,-0.37798 -1.41741,-2.92931 0.755952,-9.92188 1.275675,-7.46505"
       id="path4573"
       inkscape:connector-curvature="0" />
    <path
       style="fill:none;stroke:#ffffff;stroke-width:0.26458332px;stroke-linecap:butt;stroke-linejoin:miter;stroke-opacity:1"
       d="m 128.08892,106.00251 -1.1693,-1.80407 -0.40091,-3.17382 0.10023,-3.040195 0.96885,-2.00452 2.23838,-3.006783 2.60588,-1.503389 2.33861,-1.33635 h 3.10701 l 1.5702,0.03341 2.50566,1.069078 1.03567,0.367496"
       id="path4575"
       inkscape:connector-curvature="0" />
    <path
       style="fill:none;stroke:#ffffff;stroke-width:0.26458332px;stroke-linecap:butt;stroke-linejoin:miter;stroke-opacity:1"
       d="m 136.37428,110.41246 -0.7684,-0.23386 -0.23386,-6.18061 -1.3583,-0.80615"
       id="path4577"
       inkscape:connector-curvature="0"
       sodipodi:nodetypes="cccc" />
    <path
       style="fill:none;stroke:#ffffff;stroke-width:0.26458332px;stroke-linecap:butt;stroke-linejoin:miter;stroke-opacity:1"
       d="m 134.01372,103.19184 -1.29054,-1.62818 0.77328,-2.599562 1.22843,-1.488281 1.79538,-0.685083 h 1.72452 l 1.44103,0.755954 0.68509,0.732327 0.28348,1.228423 0.23623,1.252042 -0.0945,1.03944 -0.25986,0.89769 -0.47247,0.54334 -0.0472,0.33073 -0.0472,6.26023 -0.73233,0.44885 1.32291,18.66257 1.08668,-0.0472 0.18899,2.40959 -1.84263,0.8977 -2.22061,-1.93713 -0.89769,-4.77195 -0.50035,-15.08084"
       id="path4579"
       inkscape:connector-curvature="0" />
    <path
       style="fill:none;stroke:#ffffff;stroke-width:0.26458332px;stroke-linecap:butt;stroke-linejoin:miter;stroke-opacity:1"
       d="m 136.37436,110.4125 0.81843,-0.36754 0.93544,0.0167 1.10883,0.21809"
       id="path4581"
       inkscape:connector-curvature="0" />
    <path
       style="fill:none;stroke:#ffffff;stroke-width:0.26458332px;stroke-linecap:butt;stroke-linejoin:miter;stroke-opacity:1"
       d="m 135.60588,110.1786 0.98555,-0.58465 0.93544,-0.21716 0.98556,0.10022 0.88533,0.11694 0.57163,0.23696"
       id="path4583"
       inkscape:connector-curvature="0" />
    <path
       style="fill:none;stroke:#ffffff;stroke-width:0.26458332px;stroke-linecap:butt;stroke-linejoin:miter;stroke-opacity:1"
       d="m 131.84282,109.64192 0.89769,0.99219 1.96075,0.4016 1.58278,-0.0236"
       id="path4585"
       inkscape:connector-curvature="0" />
    <path
       style="fill:none;stroke:#ffffff;stroke-width:0.26458332px;stroke-linecap:butt;stroke-linejoin:miter;stroke-opacity:1"
       d="m 139.37872,111.05934 1.55915,-0.33073 2.008,-0.87407 1.63002,-1.53553 1.25205,-1.44104"
       id="path4587"
       inkscape:connector-curvature="0" />
    <path
       style="fill:none;stroke:#ffffff;stroke-width:0.26458332px;stroke-linecap:butt;stroke-linejoin:miter;stroke-opacity:1"
       d="m 103.43331,127.75157 1.36975,-1.43658 0.80181,-2.23838 0.43431,-0.93544 0.66818,1.77066 0.66817,-0.93544 -0.73499,3.17382 1.57021,-0.26727"
       id="path4589"
       inkscape:connector-curvature="0" />
    <path
       style="fill:none;stroke:#ffffff;stroke-width:0.26458332px;stroke-linecap:butt;stroke-linejoin:miter;stroke-opacity:1"
       d="m 110.24868,129.75609 1.46998,2.40543 -1.43657,0.26727 1.83747,2.07134 -3.90881,-1.06908 0.53454,2.33861 -1.70384,-0.70159"
       id="path4591"
       inkscape:connector-curvature="0" />
    <path
       style="fill:none;stroke:#ffffff;stroke-width:0.26458332px;stroke-linecap:butt;stroke-linejoin:miter;stroke-opacity:1"
       d="m 100.82743,130.59131 -5.211759,1.06908 3.875411,0.96885 -3.307461,3.64155 6.581509,-2.07134"
       id="path4593"
       inkscape:connector-curvature="0" />
    <text
       xml:space="preserve"
       style="font-style:normal;font-variant:normal;font-weight:normal;font-stretch:normal;font-size:4.35882139px;line-height:1.25;font-family:'Franklin Gothic Medium';-inkscape-font-specification:'Franklin Gothic Medium, ';letter-spacing:0px;word-spacing:0px;fill:#fffff4;fill-opacity:1;stroke:none;stroke-width:0.10897053;"
       x="82.761002"
       y="152.85268"
       id="text4597"
       transform="rotate(0.94416841)"><tspan
         sodipodi:role="line"
         id="tspan4595"
         x="82.761002"
         y="152.85268"
         style="font-style:normal;font-variant:normal;font-weight:normal;font-stretch:normal;font-family:'Franklin Gothic Medium';-inkscape-font-specification:'Franklin Gothic Medium, ';stroke-width:0.10897053;fill:#fffff4;fill-opacity:1;">SHIELD EYES FROM LIGHT</tspan></text>
  </g>
</svg>
