<?xml version="1.0" encoding="UTF-8" standalone="no"?>
<!-- Created with Inkscape (http://www.inkscape.org/) -->

<svg
   xmlns:dc="http://purl.org/dc/elements/1.1/"
   xmlns:cc="http://creativecommons.org/ns#"
   xmlns:rdf="http://www.w3.org/1999/02/22-rdf-syntax-ns#"
   xmlns:svg="http://www.w3.org/2000/svg"
   xmlns="http://www.w3.org/2000/svg"
   xmlns:sodipodi="http://sodipodi.sourceforge.net/DTD/sodipodi-0.dtd"
   xmlns:inkscape="http://www.inkscape.org/namespaces/inkscape"
   width="210mm"
   height="297mm"
   viewBox="0 0 210 297"
   version="1.1"
   id="svg906"
   inkscape:version="0.92.4 (5da689c313, 2019-01-14)"
   sodipodi:docname="glady.svg">
  <defs
     id="defs900" />
  <sodipodi:namedview
     id="base"
     pagecolor="#ffffff"
     bordercolor="#666666"
     borderopacity="1.0"
     inkscape:pageopacity="0.0"
     inkscape:pageshadow="2"
     inkscape:zoom="0.98994949"
     inkscape:cx="227.44808"
     inkscape:cy="473.60618"
     inkscape:document-units="mm"
     inkscape:current-layer="layer1"
     showgrid="false"
     inkscape:window-width="1920"
     inkscape:window-height="1001"
     inkscape:window-x="-9"
     inkscape:window-y="-9"
     inkscape:window-maximized="1"
     inkscape:lockguides="true" />
  <metadata
     id="metadata903">
    <rdf:RDF>
      <cc:Work
         rdf:about="">
        <dc:format>image/svg+xml</dc:format>
        <dc:type
           rdf:resource="http://purl.org/dc/dcmitype/StillImage" />
        <dc:title></dc:title>
      </cc:Work>
    </rdf:RDF>
  </metadata>
  <g
     inkscape:label="Calque 1"
     inkscape:groupmode="layer"
     id="layer1">
    <path
       style="fill:none;stroke:#ffffff;stroke-width:0.26458332;stroke-linecap:butt;stroke-linejoin:miter;stroke-opacity:1;stroke-miterlimit:4;stroke-dasharray:none;stroke-dashoffset:0"
       d="m 121.77468,234.65938 4.34313,3.54132 2.13815,0.86863 2.50565,2.10474 2.77293,-3.44109 -0.3675,-1.46998 3.20724,-2.83974 3.84199,-3.94223 2.90656,-5.61266 2.97337,-6.68174 -0.10022,-4.10926 -2.37202,0.0334 -1.67043,1.16931 -2.97338,3.64155 -8.4524,4.71062 -1.06907,-0.50113 -2.57247,0.93544 1.10248,2.47225 0.66818,3.17382 -1.06908,2.83974 -3.10701,3.57473 z"
       id="path1462"
       inkscape:connector-curvature="0" />
    <path
       style="fill:none;stroke:#ffffff;stroke-width:0.26458332;stroke-linecap:butt;stroke-linejoin:miter;stroke-opacity:1;stroke-miterlimit:4;stroke-dasharray:none;stroke-dashoffset:0"
       d="m 70.681547,249.65848 19.560268,-35.71875 -0.18899,-3.02381 -4.91369,-15.40253 2.645833,-0.18899 8.882441,1.32292 4.535711,6.14211 11.71726,17.76488 6.92169,12.26061 2.14974,-0.23624 0.28349,2.008"
       id="path1464"
       inkscape:connector-curvature="0" />
    <path
       style="fill:none;stroke:#ffffff;stroke-width:0.26458332;stroke-linecap:butt;stroke-linejoin:miter;stroke-opacity:1;stroke-miterlimit:4;stroke-dasharray:none;stroke-dashoffset:0"
       d="m 70.681545,249.65848 -2.16032,0.3689 -1.205087,0.43558 -2.493494,0.68844 -1.765622,0.0442 -3.204862,-0.27706 -2.463439,-2.42667 -0.928033,-3.24191 11.024867,-19.9784 3.340868,-7.85105 2.10475,-3.37427 2.873147,-2.33861 -1.570209,-5.11153 -1.135896,-0.4009 -0.668174,-1.43658 -0.167045,-1.77066 -1.637024,-0.66817 -1.536801,-2.73952 -2.23838,-2.10474 -6.715149,-8.11831 -5.679477,-0.53454 -7.11605,-5.47903 5.044712,0.56795 4.610399,-2.47224 4.777444,-4.64381 2.388788,1.18922 2.740326,-0.28349 0.803201,-0.47247 0.566962,-1.65364 1.795389,1.22842 0.897694,0.0472 1.700892,-0.0945 0.850445,-0.47247 1.417413,1.46466 0.944938,-0.23624 1.27567,-2.07886 H 77.7686 l 1.27567,-0.33073 0.897694,-1.41741 1.039434,-1.37017 1.039434,0.51972 1.181177,0.23623 0.708705,0.0472 0.188987,1.32292 20.505209,9.21317 3.2128,2.88206 13.93787,28.30097 0.99219,0.99219 0.85044,3.59077 0.56697,2.74033 2.72103,0.90585"
       id="path1466"
       inkscape:connector-curvature="0"
       sodipodi:nodetypes="ccccccccccccccccccccccccccccccccccccccccccccccccccc" />
    <path
       style="fill:none;stroke:#ffffff;stroke-width:0.26458332;stroke-linecap:butt;stroke-linejoin:miter;stroke-opacity:1;stroke-miterlimit:4;stroke-dasharray:none;stroke-dashoffset:0"
       d="m 55.61054,246.29107 -3.459079,4.40891 -0.828298,2.15409 -2.057277,2.54477 3.492589,2.70777 1.462822,-0.39506 2.899509,3.15331 4.013728,3.76723 5.666291,2.80057 6.736431,2.84728 4.106655,-0.17742 -0.07797,-2.37098 -1.200493,-1.64816 -3.696788,-2.90442 -4.868625,-8.36239 0.480948,-1.07829 -0.983617,-2.55444 -2.451098,1.14874 -3.160699,0.72771 -2.859333,-1.01553 -3.632478,-3.03928 z"
       id="path1462-2"
       inkscape:connector-curvature="0" />
    <path
       style="fill:none;stroke:#ffffff;stroke-width:0.26458332;stroke-linecap:butt;stroke-linejoin:miter;stroke-opacity:1;stroke-miterlimit:4;stroke-dasharray:none;stroke-dashoffset:0"
       d="m 68.271947,175.57517 -3.525906,-4.79321 -2.438834,-2.80633"
       id="path1483"
       inkscape:connector-curvature="0" />
    <path
       style="fill:none;stroke:#ffffff;stroke-width:0.26458332;stroke-linecap:butt;stroke-linejoin:miter;stroke-opacity:1;stroke-miterlimit:4;stroke-dasharray:none;stroke-dashoffset:0"
       d="m 67.719415,162.22934 5.712886,-0.0334 1.837479,0.20045 5.746294,-0.56795 -1.202713,1.80407 -4.075859,0.56795 -0.06682,1.9043 6.514695,2.87315 -0.164549,3.85689"
       id="path1485"
       inkscape:connector-curvature="0" />
    <path
       style="fill:none;stroke:#ffffff;stroke-width:0.26458332;stroke-linecap:butt;stroke-linejoin:miter;stroke-opacity:1;stroke-miterlimit:4;stroke-dasharray:none;stroke-dashoffset:0"
       d="m 86.862596,171.71741 2.372016,1.1693 0.88533,-2.07134 1.80407,0.0668 1.035669,-1.77066 1.570209,-1.1359 0.501132,0.26727 1.403164,-2.48894 -0.517834,-0.58466 -3.424391,0.23386 -2.004523,-1.08578 -0.618061,1.03567 -1.403165,0.10023 -1.085781,1.9377 0.283974,1.48669 -0.668176,1.40316 z"
       id="path1487"
       inkscape:connector-curvature="0" />
    <path
       style="fill:none;stroke:#ffffff;stroke-width:0.26458332;stroke-linecap:butt;stroke-linejoin:miter;stroke-opacity:1;stroke-miterlimit:4;stroke-dasharray:none;stroke-dashoffset:0"
       d="m 83.910714,173.11822 2.951882,-1.40081"
       id="path1489"
       inkscape:connector-curvature="0" />
    <path
       style="fill:none;stroke:#ffffff;stroke-width:0.26458332;stroke-linecap:butt;stroke-linejoin:miter;stroke-opacity:1;stroke-miterlimit:4;stroke-dasharray:none;stroke-dashoffset:0"
       d="m 74.414062,158.35361 1.937128,-0.51972 2.220611,-1.81901 2.645833,-1.06306 3.42541,0.0945 2.645833,1.15755 2.952938,3.33091 10.819565,-1.34654 1.58278,-1.63002 2.3151,-0.8032 2.95294,-0.56696 1.37017,0.96856 -0.0236,0.75595 3.02381,-0.42522 1.34654,3.9215 -1.11031,1.53553 -2.40959,0.61421 -0.61422,1.34654 -1.81901,1.58278 -4.44122,-0.42523 -1.34654,-0.89769 -0.4016,-0.99219 -9.827378,1.81901"
       id="path1491"
       inkscape:connector-curvature="0" />
    <path
       style="fill:none;stroke:#ffffff;stroke-width:0.26458332;stroke-linecap:butt;stroke-linejoin:miter;stroke-opacity:1;stroke-miterlimit:4;stroke-dasharray:none;stroke-dashoffset:0"
       d="m 47.340115,183.34365 -2.138157,-2.17158 -3.54132,-3.30746 -2.739515,-2.87315 -2.171562,-1.30294 1.202711,-17.87365 1.603618,-4.57699 -4.510174,-6.5147 0.267271,-1.83747 2.171563,-4.84426 7.884451,-11.05828 2.472245,-4.87767 1.436574,-3.80859 3.307458,-3.80859 4.142679,-2.57247 5.545841,-1.63703 6.447878,0.13364 5.245166,-1.73725 3.407685,-2.40543 0.467722,4.64381 1.269529,6.18061 0.133636,4.27631 0.634765,5.94675 -1.436574,16.23662 -0.734991,8.65285 -1.570207,3.14042 -1.724345,3.00646 -3.119917,3.87573"
       id="path1493"
       inkscape:connector-curvature="0" />
    <path
       style="fill:none;stroke:#ffffff;stroke-width:0.26458332;stroke-linecap:butt;stroke-linejoin:miter;stroke-opacity:1;stroke-miterlimit:4;stroke-dasharray:none;stroke-dashoffset:0"
       d="m 73.966842,108.67521 1.72289,4.8646 1.27567,7.32328 0.566962,8.032 0.276476,4.26869 -0.801809,5.91334 1.236123,7.78422"
       id="path1495"
       inkscape:connector-curvature="0" />
    <path
       style="fill:none;stroke:#ffffff;stroke-width:0.26458332;stroke-linecap:butt;stroke-linejoin:miter;stroke-opacity:1;stroke-miterlimit:4;stroke-dasharray:none;stroke-dashoffset:0"
       d="m 77.57498,107.13841 1.03567,-1.1359 7.283092,12.56167 -3.307458,1.30294 -3.374279,-0.0668"
       id="path1497"
       inkscape:connector-curvature="0" />
    <path
       style="fill:none;stroke:#ffffff;stroke-width:0.26458332;stroke-linecap:butt;stroke-linejoin:miter;stroke-opacity:1;stroke-miterlimit:4;stroke-dasharray:none;stroke-dashoffset:0"
       d="m 82.586284,119.86712 0.355864,1.65743 0.826823,0.18899 0.637837,2.38597 0.472469,0.42523 -0.956646,18.79528 -0.668174,3.4745 -4.276312,6.41447 -0.406344,2.80589"
       id="path1499"
       inkscape:connector-curvature="0" />
    <path
       style="fill:none;stroke:#ffffff;stroke-width:0.26458332;stroke-linecap:butt;stroke-linejoin:miter;stroke-opacity:1;stroke-miterlimit:4;stroke-dasharray:none;stroke-dashoffset:0"
       d="m 85.044641,119.30394 1.6064,0.42522 0.614211,3.59078 -0.54334,0.66146 0.118118,7.1343 -0.614212,10.96131 0.236236,7.60677 -0.519718,3.96875 -0.448847,1.72451"
       id="path1503"
       inkscape:connector-curvature="0" />
    <path
       style="fill:none;stroke:#ffffff;stroke-width:0.26458332;stroke-linecap:butt;stroke-linejoin:miter;stroke-opacity:1;stroke-miterlimit:4;stroke-dasharray:none;stroke-dashoffset:0"
       d="m 87.005394,121.50093 1.110306,2.59858 0.68508,3.2128 -0.259858,5.66964 -0.708705,3.96875 1.063056,0.8977 0.425226,1.58277 -2.952941,4.53572"
       id="path1505"
       inkscape:connector-curvature="0" />
    <path
       style="fill:none;stroke:#ffffff;stroke-width:0.26458332;stroke-linecap:butt;stroke-linejoin:miter;stroke-opacity:1;stroke-miterlimit:4;stroke-dasharray:none;stroke-dashoffset:0"
       d="m 51.168527,144.43936 7.606771,-5.57515 5.24442,-7.60677"
       id="path1507"
       inkscape:connector-curvature="0" />
    <path
       style="fill:none;stroke:#ffffff;stroke-width:0.26458332;stroke-linecap:butt;stroke-linejoin:miter;stroke-opacity:1;stroke-miterlimit:4;stroke-dasharray:none;stroke-dashoffset:0"
       d="m 39.55589,151.23788 7.88012,7.42283 8.740701,8.92969 0.236236,4.8192 9.780132,-7.9375 1.526336,-2.24276 -6.39278,-7.11216 -3.874254,-2.64583 -6.283854,-8.03199"
       id="path1509"
       inkscape:connector-curvature="0" />
    <path
       style="fill:none;stroke:#ffffff;stroke-width:0.26458332;stroke-linecap:butt;stroke-linejoin:miter;stroke-opacity:1;stroke-miterlimit:4;stroke-dasharray:none;stroke-dashoffset:0"
       d="m 78.61065,106.00251 0.267268,-1.36975 1.469983,-2.47225 -0.785103,-2.255083 0.133633,-1.703845 0.618061,-1.670434 0.551244,-0.701582 0.985557,0.250566 0.801809,0.567946 0.11693,0.835218 2.739511,-2.472242 2.255086,-2.088044 2.088044,-1.119191 1.820773,-0.88533 4.777444,1.369756 2.037929,1.520095 1.236123,1.353052 1.035668,1.419868 0.0668,2.923263 -0.53454,3.023487 -1.102489,1.95441 -0.701582,2.85644 -1.804069,2.88985 -1.703843,2.22168 -2.321904,1.72055 -0.835218,0.56794 -2.088041,0.28398 -3.084703,4.7063"
       id="path1511"
       inkscape:connector-curvature="0" />
    <path
       style="fill:none;stroke:#ffffff;stroke-width:0.26458332;stroke-linecap:butt;stroke-linejoin:miter;stroke-opacity:1;stroke-miterlimit:4;stroke-dasharray:none;stroke-dashoffset:0"
       d="m 81.851293,96.080132 1.208973,-2.974666 2.456847,-3.401785 4.630208,-1.913503 3.661643,0.377975 3.874257,1.488282 3.212799,2.102493 1.65365,2.669455 0.28348,2.196986 -2.00574,2.879154"
       id="path1515"
       inkscape:connector-curvature="0" />
    <path
       style="fill:none;stroke:#ffffff;stroke-width:0.26458332;stroke-linecap:butt;stroke-linejoin:miter;stroke-opacity:1;stroke-miterlimit:4;stroke-dasharray:none;stroke-dashoffset:0"
       d="m 89.735722,115.02286 -2.801199,-1.6248 -2.929316,-2.97656 -2.952938,-4.25223 0.614212,-3.30729 -1.31858,-0.70147"
       id="path1517"
       inkscape:connector-curvature="0" />
  </g>
</svg>
