<?xml version="1.0" encoding="UTF-8" standalone="no"?>
<!-- Created with Inkscape (http://www.inkscape.org/) -->

<svg
   xmlns:dc="http://purl.org/dc/elements/1.1/"
   xmlns:cc="http://creativecommons.org/ns#"
   xmlns:rdf="http://www.w3.org/1999/02/22-rdf-syntax-ns#"
   xmlns:svg="http://www.w3.org/2000/svg"
   xmlns="http://www.w3.org/2000/svg"
   xmlns:sodipodi="http://sodipodi.sourceforge.net/DTD/sodipodi-0.dtd"
   xmlns:inkscape="http://www.inkscape.org/namespaces/inkscape"
   width="210mm"
   height="297mm"
   viewBox="0 0 210 297"
   version="1.1"
   id="svg8"
   inkscape:version="0.92.4 (5da689c313, 2019-01-14)"
   sodipodi:docname="Hoverboard.svg">
  <defs
     id="defs2">
    <inkscape:path-effect
       effect="bspline"
       id="path-effect844"
       is_visible="true"
       weight="33.333333"
       steps="2"
       helper_size="0"
       apply_no_weight="true"
       apply_with_weight="true"
       only_selected="false" />
    <inkscape:path-effect
       effect="bspline"
       id="path-effect840"
       is_visible="true"
       weight="33.333333"
       steps="2"
       helper_size="0"
       apply_no_weight="true"
       apply_with_weight="true"
       only_selected="false" />
    <inkscape:path-effect
       effect="bspline"
       id="path-effect836"
       is_visible="true"
       weight="33.333333"
       steps="2"
       helper_size="0"
       apply_no_weight="true"
       apply_with_weight="true"
       only_selected="false" />
    <inkscape:path-effect
       effect="bspline"
       id="path-effect832"
       is_visible="true"
       weight="33.333333"
       steps="2"
       helper_size="0"
       apply_no_weight="true"
       apply_with_weight="true"
       only_selected="false" />
  </defs>
  <sodipodi:namedview
     id="base"
     pagecolor="#ffffff"
     bordercolor="#666666"
     borderopacity="1.0"
     inkscape:pageopacity="0.0"
     inkscape:pageshadow="2"
     inkscape:zoom="1.4"
     inkscape:cx="396.08229"
     inkscape:cy="629.49514"
     inkscape:document-units="mm"
     inkscape:current-layer="layer1"
     showgrid="false"
     inkscape:window-width="1920"
     inkscape:window-height="1001"
     inkscape:window-x="-9"
     inkscape:window-y="1071"
     inkscape:window-maximized="1" />
  <metadata
     id="metadata5">
    <rdf:RDF>
      <cc:Work
         rdf:about="">
        <dc:format>image/svg+xml</dc:format>
        <dc:type
           rdf:resource="http://purl.org/dc/dcmitype/StillImage" />
        <dc:title />
      </cc:Work>
    </rdf:RDF>
  </metadata>
  <g
     inkscape:label="Calque 1"
     inkscape:groupmode="layer"
     id="layer1">
    <path
       style="fill:none;stroke:#ffffff;stroke-width:0.26458332px;stroke-linecap:butt;stroke-linejoin:miter;stroke-opacity:1"
       d="m 37.05025,140.4356 c 0.03342,-0.41219 0.100237,-1.23627 0.52341,-1.97113 0.423174,-0.73485 1.202983,-1.38098 4.052938,-1.68155 2.849956,-0.30056 7.77398,-0.256 18.631355,0.0892 10.857374,0.34521 27.651702,0.99115 44.454807,1.77948 16.8031,0.78833 33.61639,1.71911 43.46146,1.79112 9.84506,0.072 12.72208,-0.71466 14.36281,-1.07355 1.64073,-0.3589 2.04534,-0.29014 7.08843,0.0943 5.0431,0.38445 14.72877,1.08493 19.68183,1.70228 4.95305,0.61735 5.17578,1.1519 4.94193,2.2545 -0.23385,1.1026 -0.92413,2.77263 -2.96229,4.22056 -2.03817,1.44793 -5.42293,2.67268 -7.37181,3.29636 -1.94889,0.62368 -2.46111,0.64594 -11.31904,0.43424 -8.85794,-0.2117 -26.04304,-0.65691 -45.10842,-1.32508 -19.06538,-0.66818 -40.001183,-1.55907 -54.611977,-2.49451 -14.610795,-0.93544 -22.896051,-1.91542 -27.729264,-2.78404 -4.833213,-0.86862 -6.214067,-1.62587 -6.993682,-2.26075 -0.779616,-0.63489 -0.957782,-1.14712 -1.046845,-1.40317 -0.08906,-0.25606 -0.08906,-0.2561 -0.05564,-0.66828 z"
       id="path830"
       inkscape:connector-curvature="0"
       inkscape:path-effect="#path-effect832"
       inkscape:original-d="m 37.01683,140.84778 c 0.06708,-0.82435 0.133897,-1.64843 0.200451,-2.47225 0.779531,-0.64594 1.559337,-1.29207 2.338609,-1.9377 4.920666,0.0443 9.844691,0.0888 14.766642,0.13363 16.792805,0.64561 33.587134,1.29154 50.380308,1.93771 16.81304,0.93049 33.62633,1.86128 50.4391,2.79231 2.87729,-0.78692 5.75431,-1.57358 8.63107,-2.35998 0.4048,0.0685 0.80941,0.13724 1.2136,0.20624 9.68197,0.69992 19.36764,1.4004 29.05107,2.10099 0.22298,0.53426 0.44571,1.06881 0.66817,1.60362 -0.69035,1.67058 -1.38063,3.3406 -2.07134,5.0113 -3.3858,1.22496 -6.77056,2.44971 -10.15624,3.67496 -0.51205,0.022 -1.02427,0.0443 -1.5368,0.0668 -17.20332,-0.44595 -34.38842,-0.89116 -51.58302,-1.33634 -20.93616,-0.89118 -41.871961,-1.78206 -62.808339,-2.6727 -8.285189,-0.98026 -16.570444,-1.96024 -24.856064,-2.93996 -1.380668,-0.75755 -2.761523,-1.51479 -4.14268,-2.27179 -0.177927,-0.51257 -0.356094,-1.0248 -0.534537,-1.5368 z"
       sodipodi:nodetypes="ccccccccccccccccccc"
       transform="translate(-10.670972,2.3643993)" />
    <path
       style="fill:none;stroke:#ffffff;stroke-width:0.26458332px;stroke-linecap:butt;stroke-linejoin:miter;stroke-opacity:1"
       d="m 40.290882,137.57372 c -0.934873,0.60876 -1.915123,1.24706 4.911371,1.79284 6.826494,0.54578 21.437203,1.0135 45.647362,2.19395 24.210155,1.18044 58.019755,3.0736 75.503675,3.75283 17.48391,0.67923 18.64208,0.14469 20.24542,-0.52336 1.60334,-0.66806 3.65297,-1.47009 5.70171,-2.27177"
       id="path834"
       inkscape:connector-curvature="0"
       inkscape:path-effect="#path-effect836"
       inkscape:original-d="m 40.290882,137.57372 c -0.934916,0.60869 -1.915167,1.24699 -2.873149,1.87089 14.611023,0.46746 29.221732,0.93518 43.832201,1.40317 33.809856,1.89289 67.619456,3.78605 101.428786,5.67947 1.15842,-0.5348 2.3166,-1.06934 3.4745,-1.60361 2.04877,-0.80186 4.0984,-1.60389 6.1472,-2.40543"
       sodipodi:nodetypes="cccccc"
       transform="translate(-10.670972,2.3643993)" />
    <path
       style="fill:none;stroke:#ffffff;stroke-width:0.26458332px;stroke-linecap:butt;stroke-linejoin:miter;stroke-opacity:1"
       d="m 183.69815,144.80922 c -9.35617,-1.11927 -18.7126,-2.23857 -28.06923,-3.35789"
       id="path838"
       inkscape:connector-curvature="0"
       inkscape:path-effect="#path-effect840"
       inkscape:original-d="m 183.69815,144.80922 c -9.35614,-1.11956 -18.71256,-2.23886 -28.06923,-3.35789"
       sodipodi:nodetypes="cc"
       transform="translate(-10.670972,2.3643993)" />
    <path
       style="fill:none;stroke:#ffffff;stroke-width:0.26458332px;stroke-linecap:butt;stroke-linejoin:miter;stroke-opacity:1"
       d="m 54.050593,147.13244 c 0.06297,0.62973 0.12597,1.25969 1.922156,1.63781 1.796185,0.37812 5.322645,0.50407 7.133638,1.02363 1.810992,0.51956 1.905492,1.43306 2.961068,1.96867 1.055576,0.53562 3.070931,0.69307 6.141831,0.9281 3.070899,0.23503 7.26045,0.55242 11.622805,0.69426 4.362355,0.14184 8.992826,0.11012 11.733128,0.0944 2.740302,-0.0157 3.685293,-0.0157 4.472641,-0.37801 0.78735,-0.36226 1.449,-1.08692 7.95097,-1.24383 6.50198,-0.1569 18.79094,0.25169 25.49994,0.69267 6.709,0.44099 7.81145,0.91347 12.6932,1.49613 4.88175,0.58266 13.54471,1.27569 18.01745,1.52757 4.47275,0.25187 4.75624,0.0629 5.0395,-0.31485 0.28325,-0.37773 0.56704,-0.94531 2.53471,-1.48049 1.96767,-0.53519 5.62349,-1.03943 9.27696,-1.54336"
       id="path842"
       inkscape:connector-curvature="0"
       inkscape:path-effect="#path-effect844"
       inkscape:original-d="m 54.050593,147.13244 c 0.06326,0.6297 0.12626,1.25966 0.18899,1.88988 3.529361,0.12577 7.055821,0.25172 10.583333,0.37798 0.09475,0.91311 0.189254,1.82661 0.283482,2.74032 2.016655,0.15727 4.03201,0.31472 6.047619,0.47247 4.12601,0.31468 8.31574,0.6297 12.473214,0.94494 4.567211,-0.0318 9.197684,-0.0633 13.796132,-0.0945 0.882158,-2.7e-4 1.827149,-2.7e-4 2.740327,0 0.66153,-0.72451 1.32318,-1.44917 1.98437,-2.17336 12.34279,0.40905 24.63172,0.81868 36.94718,1.22842 1.10267,0.47219 2.20512,0.94467 3.30729,1.41741 8.66121,0.69261 17.32417,1.38565 25.98586,2.07887 0.28374,-0.18925 0.56723,-0.37824 0.85045,-0.56697 0.28344,-0.56662 0.56723,-1.13419 0.85044,-1.70089 3.65199,-0.50395 7.30781,-1.0082 10.96131,-1.5119"
       transform="translate(-10.670972,2.3643993)" />
  </g>
</svg>
