<svg xmlns="http://www.w3.org/2000/svg" viewBox="0 0 410.23 401.02">
  <defs>
    <!--<style>.cls-1{fill:#fff;}</style>-->
  </defs>
  <g id="Calque_2" data-name="Calque 2">
    <g id="Calque_1-2" data-name="Calque 1">
      <path class="cls-1" d="M410.23,401H0V0H410.23ZM286.62,242.08h-2l-44.47-.52c-8.23-.1-16.46-.23-24.69-.34-4.68-.07-9.35-.12-14-.2q-15.56-.27-31.11-.58c-4.45-.08-8.9-.19-13.35-.3-.44,0-.92.1-1.31-.4,0-.37-.07-.81-.06-1.25a73.12,73.12,0,0,0-1.45-14.61,49.73,49.73,0,0,0-5.49-15.35,30.69,30.69,0,0,0-7.07-8.55,28.82,28.82,0,0,0-13.35-6.19,38,38,0,0,0-19.35,1.13,28,28,0,0,0-12,7.94,35.82,35.82,0,0,0-6.57,10.95,49.34,49.34,0,0,0-2,5.73,74.85,74.85,0,0,0-2.18,11.1,5.43,5.43,0,0,1-.42,1.1,13.93,13.93,0,0,1-.65-1.63,30.57,30.57,0,0,1-1.14-7.84c.08-2.81.23-5.62.33-8.44a7.51,7.51,0,0,0-.08-1.5.63.63,0,0,0-.46-.39c-.16,0-.45.23-.46.38a22.82,22.82,0,0,0-.24,2.86c0,5.18,0,10.37-.06,15.55,0,1.67.19,3.12,1.54,4.23l.11.13a2.88,2.88,0,0,1,.93,2.74,4.23,4.23,0,0,0,0,1.18,1.58,1.58,0,0,0,.26.78,4,4,0,0,0,1.61,1.26,6.37,6.37,0,0,0,.48-2.19c.1-1.8.21-3.6.35-5.4a48,48,0,0,1,3.06-12.94,32.6,32.6,0,0,1,5.48-9.64,29.45,29.45,0,0,1,4.6-4.47,25.53,25.53,0,0,1,9.36-4.53,39.11,39.11,0,0,1,13.42-1,37.61,37.61,0,0,1,8.39,1.88,19.84,19.84,0,0,1,3.42,1.45,29.26,29.26,0,0,1,9.36,8.14,39.91,39.91,0,0,1,6.08,13.29,56.53,56.53,0,0,1,1.76,13.2,6.62,6.62,0,0,1-.14,1.1l-1.73.33a3,3,0,0,0-.06.74,15.81,15.81,0,0,1,.66,4.32.81.81,0,0,0,.5.81c.57.25.62.74.64,1.26a16.44,16.44,0,0,0,.12,1.86,1.48,1.48,0,0,0,1,1.38,10.17,10.17,0,0,0,1.25-4.22,21.85,21.85,0,0,1,2.55,0l22.49.44c12.06.2,24.12.42,36.18.59q26.72.38,53.43.69l14.88.15a2.68,2.68,0,0,1,1.85.31c0,.35.1.73.17,1.12.16.88.32,1.77.5,2.65.05.28.18.62.51.54a.93.93,0,0,0,.51-.58c.26-.91.48-1.84.65-2.78a1.4,1.4,0,0,1,.9-1.28c.58-.21.63-.46.48-1.06-.19-.77-.44-1.52-.61-2.28a18.35,18.35,0,0,1-.68-3.47,51.94,51.94,0,0,1,.63-10.27,57.63,57.63,0,0,1,2-8.38A36.67,36.67,0,0,1,297,212.23a26.37,26.37,0,0,1,11.45-9.17,32,32,0,0,1,5.15-1.61,36.44,36.44,0,0,1,12.1-.6c5.21.64,10.16,2,14.48,5.16a28.46,28.46,0,0,1,7.35,7.61,42.91,42.91,0,0,1,5.52,13.54,66.55,66.55,0,0,1,1.49,12.74c0,.49,0,1-.06,1.4-.71.67-1.83.29-2.29,1.24.12.53.27,1.06.36,1.61.17.94.32,1.88.45,2.83a1.35,1.35,0,0,0,.77,1.21c.42.18.48.58.58,1s.33,1.06.53,1.58c.1.26.57.24.7,0a8.48,8.48,0,0,0,.45-1.08c.18-.53.32-1.06.47-1.57a5.87,5.87,0,0,1,.77-.17,66.06,66.06,0,0,0,11.92-2.3,11.5,11.5,0,0,0,3.53-1.57c1.54-1.09,1.67-.86,1.67-3.14q0-10.41,0-20.8c0-.51-.05-1-.1-1.52-.11-.95-.27-1.89-.34-2.84-.3-3.94-.63-7.87-1.24-11.77a20.88,20.88,0,0,0-2.46-7.15,11.65,11.65,0,0,0-5.18-5.16,2.1,2.1,0,0,1-1.18-1.34,13.6,13.6,0,0,0-1-2.66,14.94,14.94,0,0,0-3.47-4.1,31.11,31.11,0,0,0-10.42-5.4c-2.14-.69-4.33-1.25-6.52-1.78-3.39-.83-6.78-1.64-10.2-2.32-2.82-.57-5.66-1-8.51-1.37-4.91-.67-9.82-1.34-14.75-1.88-4.09-.44-8.19-.71-12.29-1a3.48,3.48,0,0,1-1.57-.52c-2.63-1.64-5.25-3.3-7.92-4.87q-5.31-3.12-10.7-6.11c-3.2-1.78-6.4-3.56-9.66-5.22-3.86-2-7.74-3.91-11.72-5.62-3.36-1.45-6.72-2.9-10.19-4.08-1.65-.56-3.3-1.14-5-1.64-3.93-1.19-7.9-2.23-11.9-3.15a144.71,144.71,0,0,0-33.83-3.84c-5,0-10,.14-15,.22-1.3,0-2.6,0-3.89.09-4.11.18-8.22.41-12.33.54a52.11,52.11,0,0,0-7.37.83c-1.28.22-2.56.43-3.84.61a50,50,0,0,0-5.83,1c-1.09.3-2.19.52-3.28.8-2.35.58-4.72,1.09-7,1.79a79.37,79.37,0,0,0-13.6,5.51c-.9.46-1.84.85-2.75,1.3a12.35,12.35,0,0,0-1.91,1.08,66.66,66.66,0,0,0-9.8,8.26c-.92,1-1.91,1.92-2.83,2.9-1.86,2-3.67,4-5.54,5.94a11.3,11.3,0,0,1-2,1.77,17.79,17.79,0,0,0-7.8,10.85,25.06,25.06,0,0,0-1,9.19,1.61,1.61,0,0,1-.8,1.71l-.41.29a11.36,11.36,0,0,0-3.71,4.93,4.87,4.87,0,0,0-.37,1.8c0,2.48,0,5,0,7.44a7.62,7.62,0,0,0,.14,1,10.7,10.7,0,0,0,.61-2.48,28.5,28.5,0,0,1,2.2-7.77,10.86,10.86,0,0,1,4-4.88,1.77,1.77,0,0,0,.93-2,1.38,1.38,0,0,1,.35-1.46l1.45-.08a32.52,32.52,0,0,0,8.28-1.53,11,11,0,0,0,6.73-6c.29-.61.57-1.23.82-1.85a23.85,23.85,0,0,0,1.77-6.85c.22-2.19-.85-3.53-2.71-3.79-.33,0-.65-.17-1-.2-.91-.1-1.36.26-1.5,1.19a3,3,0,0,0,0,.67.88.88,0,0,0,.77.95,14.46,14.46,0,0,1,1.64.36,1.84,1.84,0,0,1,1.44,2.45,16,16,0,0,1-2.5,6.23,8.57,8.57,0,0,1-2.75,2.71,21.46,21.46,0,0,1-6.59,2.56c-1.71.33-3.46.48-5.19.68a2.2,2.2,0,0,1-.71-.12,1.57,1.57,0,0,1-.16-.43,22.61,22.61,0,0,1,2.74-9.32,14.75,14.75,0,0,1,5-5.41,19.79,19.79,0,0,0,3.59-3q3.94-4.07,7.83-8.19a19.84,19.84,0,0,1,3.44-3c2.16-1.45,4.29-2.92,6.44-4.37a11.83,11.83,0,0,1,1.43-.9A91.08,91.08,0,0,1,132.21,144a92.16,92.16,0,0,1,20.5-4.86c3.7-.36,7.39-.83,11.1-1.08,4.89-.34,9.79-.55,14.69-.74,5.07-.18,10.14-.32,15.21-.38a185.74,185.74,0,0,1,19.6.46c2.58.24,5.17.48,7.72.9,2.77.47,5.53,1.07,8.26,1.74,3.11.76,6.21,1.58,9.26,2.59a129.37,129.37,0,0,1,15.15,6.19c3.71,1.77,7.36,3.66,11,5.57q5,2.64,9.92,5.44c3.77,2.16,7.48,4.39,11.2,6.63,2,1.21,4,2.49,6,3.75.25.16.61.3.48.73-.12,0-.24.1-.33.07a1.07,1.07,0,0,0-1.44.75,5.46,5.46,0,0,1-5.63,3.49c-.46,0-.91,0-1.36,0l-10.47-.48-.67-.05c-2.53-.18-5.06-.41-7.59-.54-6.75-.36-13.51-.66-20.26-1-1.74-.09-3.49-.23-5.23-.33-3.6-.19-7.2-.34-10.81-.54-4.38-.26-8.77-.57-13.15-.82-4.73-.27-9.45-.5-14.18-.76-3.26-.18-6.52-.4-9.79-.58l-12.14-.67q-6.09-.35-12.15-.73c-5.35-.34-10.69-.68-16-1a19.14,19.14,0,0,1-7.58-2.14c-1.65-.86-3.27-1.78-4.93-2.61a27.24,27.24,0,0,1-3.67-2.4,6.43,6.43,0,0,1-2.53-3.69,13,13,0,0,1-.51-3.67,8,8,0,0,1,1.64-4.35,5.5,5.5,0,0,1,2.73-1.87c.63-.25,1.28-.43,1.92-.64,2.56-.87,5.16-1.63,7.77-2.31a51.22,51.22,0,0,1,6.26-1.33c4.2-.56,8.43-.56,12.64-.94,2.41-.22,4.84-.25,7.26-.3,5.92-.13,11.84-.26,17.75-.31,4,0,8,0,12,.1,6.82.13,13.63.31,20.45.47l.68,0c2.3.13,4.61.26,6.91.37A8.79,8.79,0,0,0,231,142c-.23-.3-.33-.54-.48-.58a20.89,20.89,0,0,0-3.1-.75c-1.62-.18-3.26-.22-4.89-.28q-6.16-.24-12.34-.45c-2.87-.09-5.74-.21-8.62-.24-4.62,0-9.24,0-13.86,0-4.17,0-8.35,0-12.52.09-4.84.13-9.68.36-14.52.6-3.94.2-7.88.42-11.81.74a25.48,25.48,0,0,0-4.65.83c-3.15.85-6.28,1.79-9.39,2.77a38.42,38.42,0,0,0-4.05,1.68,2.66,2.66,0,0,0-1.54,1.49,15,15,0,0,0-.73,2.76c-.16,1.28-.14,2.59-.21,3.88a6.09,6.09,0,0,0,2.19,5.09,20.62,20.62,0,0,0,4.59,3.14c1.41.69,2.83,1.39,4.19,2.19a29.35,29.35,0,0,0,8.49,3.19,7,7,0,0,1,.82.17,19.73,19.73,0,0,0,5.64,1c2.92.22,5.85.39,8.77.59,2.42.16,4.83.34,7.25.49,3.65.23,7.31.44,11,.66l7.76.44,10.8.59c4.55.26,9.11.53,13.67.78l12,.67c1.06.07,2.13.17,3.2.23,5.57.28,11.14.53,16.71.83,5.12.27,10.24.59,15.36.87,3.09.18,6.19.31,9.28.47,3.94.21,7.88.46,11.82.67,2.3.12,4.61.25,6.92.29A6,6,0,0,0,294.6,173c.14-.29.26-.59.42-.94.69.19,1.27.37,1.87.5s1.11.18,1.66.27,1.13.5,1.8.06c-.21-.87-1.24-.95-1.65-1.79a5.44,5.44,0,0,1,.92-.05c1.57.13,3.14.26,4.71.42,2.75.28,5.49.54,8.23.87,3.41.42,6.81.92,10.22,1.35,3.24.41,6.44,1,9.64,1.67,1.71.35,3.4.79,5.11,1.14a78.38,78.38,0,0,1,10.11,2.68,29,29,0,0,1,6.45,2.91c.23.15.5.29.36.71a4.44,4.44,0,0,1-.63,0c-2.69-.3-5.37-.63-8.06-.9a10.69,10.69,0,0,0-2.19,0,3,3,0,0,0-.93.44,10.71,10.71,0,0,0,1.12,2.13,4,4,0,0,0,2.82,2,26.82,26.82,0,0,0,2.65.49c3.36.39,6.72.75,10.08,1.1a1.37,1.37,0,0,1,1.21.78c.32.66.62,1.33.87,2a2.21,2.21,0,0,0,1.32,1.43,9.19,9.19,0,0,1,3.66,2.93,20.22,20.22,0,0,1,4,11,4.89,4.89,0,0,1-.91,3,3.83,3.83,0,0,1-2.28,1.37,10.13,10.13,0,0,1-5.67,0,5.41,5.41,0,0,1-3.69-3,8.7,8.7,0,0,1-1-3.71c0-1.4-.09-2.81-.13-4.22A1.65,1.65,0,0,1,358,198a5,5,0,0,1,2.67,0,18.81,18.81,0,0,1,4.81,1.56,1.33,1.33,0,0,0,1.35.22,3.25,3.25,0,0,0,.41-1.53,1.62,1.62,0,0,0-1-1.78c-.93-.4-1.88-.77-2.81-1.17a11.72,11.72,0,0,0-3.45-.76c-2.47-.26-3.84.73-4.44,3.14a5.75,5.75,0,0,0-.14.83,26.33,26.33,0,0,0,.71,9.88,13.21,13.21,0,0,0,1.11,2.63,6.17,6.17,0,0,0,4.29,3,11.42,11.42,0,0,0,5.2,0,4.87,4.87,0,0,0,3.55-2.33c.09-.17.29-.28.55-.52a10,10,0,0,1,.29,2.41c-.93.7-.93.7-.88,1.63l0,.33c.27,4.45.46,8.89.35,13.35,0,1.74-.17,3.49-.33,5.23a5.25,5.25,0,0,1-3.62,4.64,49.18,49.18,0,0,1-9.15,2.35c-.14,0-.31-.07-.45-.1a2.82,2.82,0,0,1-.2-1.68,73.6,73.6,0,0,0-.7-11.3c-.26-1.78-.65-3.54-1-5.31a49,49,0,0,0-2.46-8.42,38.28,38.28,0,0,0-4-7.78,29,29,0,0,0-16-12,34.72,34.72,0,0,0-9-1.43,36.68,36.68,0,0,0-13.81,1.9,27.89,27.89,0,0,0-11.41,7.59,33.43,33.43,0,0,0-6.32,10.11,72.66,72.66,0,0,0-2.55,7,70.66,70.66,0,0,0-2.07,10.6,76.82,76.82,0,0,0-.78,10.28C286.74,241,286.67,241.41,286.62,242.08Zm48.28-12.31a5.12,5.12,0,0,1,.32-.69,13.57,13.57,0,0,1,4.9-4.53c.64-.35,1.31-.65,2-1a16.35,16.35,0,0,0,4.07-3,2.35,2.35,0,0,0,.53-1,.59.59,0,0,0-.5-.75,5.28,5.28,0,0,0-1.49.07,9.82,9.82,0,0,0-1.89.72q-2.26,1.14-4.47,2.37a39.57,39.57,0,0,0-9.54,7.44,17.5,17.5,0,0,0-2.45,3.42,4.7,4.7,0,0,0-.39.93,1.48,1.48,0,0,0,.85,2,5.33,5.33,0,0,0,2.29.52c.89,0,1.79.08,2.69.18,1.06.11,2.11.32,3.17.4a33,33,0,0,1,5.51.75,5.19,5.19,0,0,0,3.16-.18,17,17,0,0,0,5.45-3.3,4.63,4.63,0,0,0,.83-1,.67.67,0,0,0-.44-1,2,2,0,0,0-.33-.08,38.2,38.2,0,0,0-4.49-.74c-2.92-.16-5.79-.76-8.72-.85A1,1,0,0,1,334.9,229.77Zm-203.61-6.31a4.57,4.57,0,0,1,.47-2.37,17.63,17.63,0,0,1,3.41-5,42.11,42.11,0,0,0,3.27-3.65,5.27,5.27,0,0,0,1.22-2.56.67.67,0,0,0-.93-.79,6.65,6.65,0,0,0-2.29,1.39,65,65,0,0,0-5.13,5.37,49.37,49.37,0,0,0-3.63,4.88,34.72,34.72,0,0,0-3.34,6.43,13.52,13.52,0,0,0-.6,2.29,3,3,0,0,0,0,1,1.24,1.24,0,0,0,1.07,1.14,4,4,0,0,0,2-.08c.92-.25,1.85-.47,2.78-.69,1.2-.3,2.41-.56,3.61-.88a34.29,34.29,0,0,1,5.12-1.09,6.06,6.06,0,0,0,3.26-1.28,19.08,19.08,0,0,0,4.05-4.5,7.61,7.61,0,0,0,.71-1.53c.24-.67-.12-1.07-.86-1-.12,0-.23,0-.34,0a33.47,33.47,0,0,0-5.94,1.21c-2.26.72-4.66.84-6.88,1.7A2.92,2.92,0,0,1,131.29,223.46Zm177.45,20.23a2.56,2.56,0,0,1-.22.58c-.67.9-1.35,1.79-2,2.69a13.08,13.08,0,0,0-1,1.35c-1.47,2.48-3.08,4.84-5.68,6.31a1.75,1.75,0,0,0-.42.29c-.62.65-1.26,1.28-1.85,2a.64.64,0,0,0,.42,1,3.26,3.26,0,0,0,1.32-.11,21.73,21.73,0,0,0,3.13-1.25,27,27,0,0,0,9.49-8.19c1.73-2.43,3.52-4.82,5.27-7.23a11.05,11.05,0,0,0,.91-1.42,1,1,0,0,0-.48-1.56,6.2,6.2,0,0,0-2.74-.75,29.42,29.42,0,0,0-5.85.79,60.76,60.76,0,0,0-6.34,1.76,17.64,17.64,0,0,0-6.32,3.8,2,2,0,0,0-.82,1.86,1.18,1.18,0,0,0,1.31.27c1.13-.33,2.27-.65,3.37-1.07a25.56,25.56,0,0,1,6.9-1.49C307.66,243.26,308.25,243.14,308.74,243.69Zm-198.5,1.53c-.28.8-.49,1.43-.74,2.06a52.26,52.26,0,0,0-1.93,5.39,13.14,13.14,0,0,1-2.95,5.8,11,11,0,0,0-1.49,2.45,3.51,3.51,0,0,0-.25,1.13.5.5,0,0,0,.58.46,3.75,3.75,0,0,0,.79-.29,10.46,10.46,0,0,0,2.8-2.15,33.07,33.07,0,0,0,5.39-7.11,6.32,6.32,0,0,0,.47-.89q1.14-3.09,2.26-6.18c.19-.53.33-1.08.53-1.61.61-1.63,1.23-3.25,1.84-4.89a4.63,4.63,0,0,0,.26-1,1.12,1.12,0,0,0-1-1.43,4.41,4.41,0,0,0-2.49.26c-2.62,1.15-5.31,2.18-7.52,4.11a7.29,7.29,0,0,1-1.12.75,24.13,24.13,0,0,0-4.38,3.42,16.74,16.74,0,0,0-3,3.88,5.15,5.15,0,0,0-.55,1.57.67.67,0,0,0,1,.7,10.31,10.31,0,0,0,1.58-1c1.22-.9,2.4-1.86,3.62-2.76A17.36,17.36,0,0,1,109,245.3,6.48,6.48,0,0,1,110.24,245.22Zm19.59,2.58a5.31,5.31,0,0,1,.76.35,24.62,24.62,0,0,0,4.32,2.62,6.41,6.41,0,0,1,1.24.86c.36.27.66.62,1,.85a10.71,10.71,0,0,1,2.48,2.27,8.74,8.74,0,0,0,1.47,1.38,1.18,1.18,0,0,0,.92.16c.38-.11.33-.55.31-.88a2.28,2.28,0,0,0-.14-.82,29,29,0,0,0-1.67-3.67,28.47,28.47,0,0,0-5.58-6.51,26.15,26.15,0,0,0-3.15-2.26c-1.69-1.1-3.42-2.15-5.15-3.21a10,10,0,0,0-1.34-.69c-.69-.28-1.46-.54-2.07,0s-.42,1.23-.3,1.91a11,11,0,0,0,1.3,3.46c1.51,2.72,2,5.71,2.53,8.69a20.67,20.67,0,0,0,.93,3.74,20.36,20.36,0,0,0,1.84,3.6,19.83,19.83,0,0,0,2,2.49c.32.37.73.86,1.27.62s.4-1,.33-1.5c-.14-.94-.36-1.87-.55-2.81-.31-1.54-.63-3.07-.92-4.61a33.57,33.57,0,0,0-1.58-4.79C130,248.71,130,248.33,129.83,247.8ZM327.06,253l.3-.21c.16.23.31.47.47.69a19.76,19.76,0,0,0,3.17,3.72,3.07,3.07,0,0,1,.53.65c1.1,1.62,2.43,3.1,3.05,5a5.32,5.32,0,0,0,1,1.56,1.18,1.18,0,0,0,.84.42c.38,0,.46-.42.51-.77a4,4,0,0,0,0-.5,15.2,15.2,0,0,0-.86-5.31c-.69-1.72-1.42-3.43-2.17-5.13a22.4,22.4,0,0,0-3.68-5.43c-1.27-1.5-2.65-2.9-3.84-4.48a9.77,9.77,0,0,0-2-1.8,1,1,0,0,0-1.65.51,4,4,0,0,0-.31,2.15c.15,1.12.31,2.23.42,3.35a37.3,37.3,0,0,1,.33,4.21c0,1.62-.22,3.25-.4,4.87a17.9,17.9,0,0,0,1.69,9.84,3,3,0,0,0,2.05-.14c.06-.34.13-.67.16-1q.25-2.94.5-5.88a13.14,13.14,0,0,0-.12-3.19A18.48,18.48,0,0,1,327.06,253ZM112.12,224.23a3.47,3.47,0,0,1-.85-.25c-.74-.5-1.47-1-2.18-1.59s-1.34-1.2-2.07-1.72a44.83,44.83,0,0,1-6.06-5.1,2.8,2.8,0,0,0-.81-.6,1,1,0,0,0-.77-.09.83.83,0,0,0-.33.68,4.16,4.16,0,0,0,.24,1.31,18.6,18.6,0,0,0,5.14,7.8c3.12,2.77,6.44,5.28,9.71,7.84a9.16,9.16,0,0,0,1.88,1.12,1.54,1.54,0,0,0,2.28-1.19,3.08,3.08,0,0,0,0-1.17,25.84,25.84,0,0,0-1.52-5.85c-.78-1.74-1.46-3.53-2.23-5.28-1.24-2.82-2.4-5.71-4.42-8.11a13,13,0,0,0-1.69-1.62.6.6,0,0,0-.95.54,3,3,0,0,0,.1,1,24.61,24.61,0,0,0,.92,2.53c1.06,2.42,2.17,4.81,3.21,7.23a9,9,0,0,1,.46,1.8A2.86,2.86,0,0,1,112.12,224.23Zm208.64,6.1h.06c-.05-1-.05-2-.17-3-.35-3.07-.71-6.14-1.15-9.2a23.73,23.73,0,0,0-1.71-6.34,11.41,11.41,0,0,0-1.1-1.88.61.61,0,0,0-1.06.26,7.5,7.5,0,0,0-.12,1.34c-.07,2.49.66,4.88.91,7.34.12,1.28.4,2.55.42,3.84,0,.23,0,.45,0,.68s0,.75-.43.8c-.21,0-.51-.19-.68-.38a7.19,7.19,0,0,1-.83-1.06c-.81-1.21-1.54-2.49-2.42-3.66a55.84,55.84,0,0,1-4.35-6.82,4.54,4.54,0,0,0-.7-.93.6.6,0,0,0-1.07.23,4.72,4.72,0,0,0-.13,2.33c.18,1,.36,2,.6,3a17.48,17.48,0,0,0,1.92,4.85c2.29,3.87,4.92,7.52,7.47,11.23a12,12,0,0,0,1.08,1.3,3.31,3.31,0,0,0,.62.56,1.34,1.34,0,0,0,2-.23,2.91,2.91,0,0,0,.7-1.69ZM80.14,215.75a2,2,0,0,0,.6-1.59.94.94,0,0,0-.87-1,13.41,13.41,0,0,0-1.68-.06H44.07c-2.08,0-4.16,0-6.24.06-1.07,0-1.51.64-1.36,1.68a1,1,0,0,0,.87.89c.67.06,1.35.05,2,.05Zm-25.95,4c-.1.46-.17.73-.21,1-.12.78.08,1,.83,1.09,1.29.07,2.58.15,3.87.16q9,.07,18.05.12c.49,0,1-.05,1.52-.08a8.12,8.12,0,0,0,.4-1c.27-1.12-.06-1.5-1.26-1.53-.34,0-.68,0-1,0-2.81,0-5.62.11-8.43.13-3.94,0-7.88,0-11.81,0Z"/><path d="M286.62,242.08c.05-.67.12-1.11.11-1.55a76.82,76.82,0,0,1,.78-10.28,70.66,70.66,0,0,1,2.07-10.6,72.66,72.66,0,0,1,2.55-7,33.43,33.43,0,0,1,6.32-10.11A27.89,27.89,0,0,1,309.86,195a36.68,36.68,0,0,1,13.81-1.9,34.72,34.72,0,0,1,9,1.43,29,29,0,0,1,16,12,38.28,38.28,0,0,1,4,7.78,49,49,0,0,1,2.46,8.42c.31,1.77.7,3.53,1,5.31a73.6,73.6,0,0,1,.7,11.3,2.82,2.82,0,0,0,.2,1.68c.14,0,.31.13.45.1a49.18,49.18,0,0,0,9.15-2.35,5.25,5.25,0,0,0,3.62-4.64c.16-1.74.29-3.49.33-5.23.11-4.46-.08-8.9-.35-13.35l0-.33c-.05-.93-.05-.93.88-1.63a10,10,0,0,0-.29-2.41c-.26.24-.46.35-.55.52a4.87,4.87,0,0,1-3.55,2.33,11.42,11.42,0,0,1-5.2,0,6.17,6.17,0,0,1-4.29-3,13.21,13.21,0,0,1-1.11-2.63,26.33,26.33,0,0,1-.71-9.88,5.75,5.75,0,0,1,.14-.83c.6-2.41,2-3.4,4.44-3.14a11.72,11.72,0,0,1,3.45.76c.93.4,1.88.77,2.81,1.17a1.62,1.62,0,0,1,1,1.78,3.25,3.25,0,0,1-.41,1.53,1.33,1.33,0,0,1-1.35-.22,18.81,18.81,0,0,0-4.81-1.56,5,5,0,0,0-2.67,0,1.65,1.65,0,0,0-1.35,1.7c0,1.41.14,2.82.13,4.22a8.7,8.7,0,0,0,1,3.71,5.41,5.41,0,0,0,3.69,3,10.13,10.13,0,0,0,5.67,0,3.83,3.83,0,0,0,2.28-1.37,4.89,4.89,0,0,0,.91-3,20.22,20.22,0,0,0-4-11,9.19,9.19,0,0,0-3.66-2.93,2.21,2.21,0,0,1-1.32-1.43c-.25-.68-.55-1.35-.87-2a1.37,1.37,0,0,0-1.21-.78c-3.36-.35-6.72-.71-10.08-1.1a26.82,26.82,0,0,1-2.65-.49,4,4,0,0,1-2.82-2,10.71,10.71,0,0,1-1.12-2.13,3,3,0,0,1,.93-.44,10.69,10.69,0,0,1,2.19,0c2.69.27,5.37.6,8.06.9a4.44,4.44,0,0,0,.63,0c.14-.42-.13-.56-.36-.71a29,29,0,0,0-6.45-2.91,78.38,78.38,0,0,0-10.11-2.68c-1.71-.35-3.4-.79-5.11-1.14-3.2-.66-6.4-1.26-9.64-1.67-3.41-.43-6.81-.93-10.22-1.35-2.74-.33-5.48-.59-8.23-.87-1.57-.16-3.14-.29-4.71-.42a5.44,5.44,0,0,0-.92.05c.41.84,1.44.92,1.65,1.79-.67.44-1.23,0-1.8-.06s-1.11-.15-1.66-.27-1.18-.31-1.87-.5c-.16.35-.28.65-.42.94a6,6,0,0,1-5.86,3.82c-2.31,0-4.62-.17-6.92-.29-3.94-.21-7.88-.46-11.82-.67-3.09-.16-6.19-.29-9.28-.47-5.12-.28-10.24-.6-15.36-.87-5.57-.3-11.14-.55-16.71-.83-1.07-.06-2.14-.16-3.2-.23l-12-.67c-4.56-.25-9.12-.52-13.67-.78l-10.8-.59-7.76-.44c-3.66-.22-7.32-.43-11-.66-2.42-.15-4.83-.33-7.25-.49-2.92-.2-5.85-.37-8.77-.59a19.73,19.73,0,0,1-5.64-1,7,7,0,0,0-.82-.17,29.35,29.35,0,0,1-8.49-3.19c-1.36-.8-2.78-1.5-4.19-2.19a20.62,20.62,0,0,1-4.59-3.14,6.09,6.09,0,0,1-2.19-5.09c.07-1.29,0-2.6.21-3.88a15,15,0,0,1,.73-2.76,2.66,2.66,0,0,1,1.54-1.49,38.42,38.42,0,0,1,4.05-1.68c3.11-1,6.24-1.92,9.39-2.77a25.48,25.48,0,0,1,4.65-.83c3.93-.32,7.87-.54,11.81-.74,4.84-.24,9.68-.47,14.52-.6,4.17-.11,8.35-.08,12.52-.09,4.62,0,9.24,0,13.86,0,2.88,0,5.75.15,8.62.24q6.17.21,12.34.45c1.63.06,3.27.1,4.89.28a20.89,20.89,0,0,1,3.1.75c.15,0,.25.28.48.58a8.79,8.79,0,0,1-1.15.12c-2.3-.11-4.61-.24-6.91-.37l-.68,0c-6.82-.16-13.63-.34-20.45-.47-4-.07-8-.13-12-.1-5.91,0-11.83.18-17.75.31-2.42,0-4.85.08-7.26.3-4.21.38-8.44.38-12.64.94a51.22,51.22,0,0,0-6.26,1.33c-2.61.68-5.21,1.44-7.77,2.31-.64.21-1.29.39-1.92.64a5.5,5.5,0,0,0-2.73,1.87,8,8,0,0,0-1.64,4.35,13,13,0,0,0,.51,3.67,6.43,6.43,0,0,0,2.53,3.69,27.24,27.24,0,0,0,3.67,2.4c1.66.83,3.28,1.75,4.93,2.61a19.14,19.14,0,0,0,7.58,2.14c5.34.37,10.68.71,16,1q6.06.39,12.15.73l12.14.67c3.27.18,6.53.4,9.79.58,4.73.26,9.45.49,14.18.76,4.38.25,8.77.56,13.15.82,3.61.2,7.21.35,10.81.54,1.74.1,3.49.24,5.23.33,6.75.34,13.51.64,20.26,1,2.53.13,5.06.36,7.59.54l.67.05,10.47.48c.45,0,.9,0,1.36,0a5.46,5.46,0,0,0,5.63-3.49A1.07,1.07,0,0,1,292,171c.09,0,.21,0,.33-.07.13-.43-.23-.57-.48-.73-2-1.26-4-2.54-6-3.75-3.72-2.24-7.43-4.47-11.2-6.63q-4.9-2.81-9.92-5.44c-3.64-1.91-7.29-3.8-11-5.57a129.37,129.37,0,0,0-15.15-6.19c-3.05-1-6.15-1.83-9.26-2.59-2.73-.67-5.49-1.27-8.26-1.74-2.55-.42-5.14-.66-7.72-.9a185.74,185.74,0,0,0-19.6-.46c-5.07.06-10.14.2-15.21.38-4.9.19-9.8.4-14.69.74-3.71.25-7.4.72-11.1,1.08a92.16,92.16,0,0,0-20.5,4.86,91.08,91.08,0,0,0-10.62,4.77,11.83,11.83,0,0,0-1.43.9c-2.15,1.45-4.28,2.92-6.44,4.37a19.84,19.84,0,0,0-3.44,3q-3.89,4.13-7.83,8.19a19.79,19.79,0,0,1-3.59,3,14.75,14.75,0,0,0-5,5.41A22.61,22.61,0,0,0,91.13,183a1.57,1.57,0,0,0,.16.43,2.2,2.2,0,0,0,.71.12c1.73-.2,3.48-.35,5.19-.68a21.46,21.46,0,0,0,6.59-2.56,8.57,8.57,0,0,0,2.75-2.71,16,16,0,0,0,2.5-6.23,1.84,1.84,0,0,0-1.44-2.45,14.46,14.46,0,0,0-1.64-.36.88.88,0,0,1-.77-.95,3,3,0,0,1,0-.67c.14-.93.59-1.29,1.5-1.19.34,0,.66.16,1,.2,1.86.26,2.93,1.6,2.71,3.79a23.85,23.85,0,0,1-1.77,6.85c-.25.62-.53,1.24-.82,1.85a11,11,0,0,1-6.73,6,32.52,32.52,0,0,1-8.28,1.53l-1.45.08a1.38,1.38,0,0,0-.35,1.46,1.77,1.77,0,0,1-.93,2,10.86,10.86,0,0,0-4,4.88,28.5,28.5,0,0,0-2.2,7.77,10.7,10.7,0,0,1-.61,2.48,7.62,7.62,0,0,1-.14-1c0-2.48-.06-5,0-7.44a4.87,4.87,0,0,1,.37-1.8,11.36,11.36,0,0,1,3.71-4.93l.41-.29a1.61,1.61,0,0,0,.8-1.71,25.06,25.06,0,0,1,1-9.19,17.79,17.79,0,0,1,7.8-10.85,11.3,11.3,0,0,0,2-1.77c1.87-2,3.68-4,5.54-5.94.92-1,1.91-1.91,2.83-2.9a66.66,66.66,0,0,1,9.8-8.26,12.35,12.35,0,0,1,1.91-1.08c.91-.45,1.85-.84,2.75-1.3a79.37,79.37,0,0,1,13.6-5.51c2.32-.7,4.69-1.21,7-1.79,1.09-.28,2.19-.5,3.28-.8a50,50,0,0,1,5.83-1c1.28-.18,2.56-.39,3.84-.61a52.11,52.11,0,0,1,7.37-.83c4.11-.13,8.22-.36,12.33-.54,1.29-.05,2.59-.06,3.89-.09,5-.08,10-.25,15-.22a144.71,144.71,0,0,1,33.83,3.84c4,.92,8,2,11.9,3.15,1.67.5,3.32,1.08,5,1.64,3.47,1.18,6.83,2.63,10.19,4.08,4,1.71,7.86,3.65,11.72,5.62,3.26,1.66,6.46,3.44,9.66,5.22q5.39,3,10.7,6.11c2.67,1.57,5.29,3.23,7.92,4.87a3.48,3.48,0,0,0,1.57.52c4.1.33,8.2.6,12.29,1,4.93.54,9.84,1.21,14.75,1.88,2.85.39,5.69.8,8.51,1.37,3.42.68,6.81,1.49,10.2,2.32,2.19.53,4.38,1.09,6.52,1.78a31.11,31.11,0,0,1,10.42,5.4,14.94,14.94,0,0,1,3.47,4.1,13.6,13.6,0,0,1,1,2.66,2.1,2.1,0,0,0,1.18,1.34,11.65,11.65,0,0,1,5.18,5.16,20.88,20.88,0,0,1,2.46,7.15c.61,3.9.94,7.83,1.24,11.77.07,1,.23,1.89.34,2.84.05.51.1,1,.1,1.52q0,10.4,0,20.8c0,2.28-.13,2.05-1.67,3.14a11.5,11.5,0,0,1-3.53,1.57,66.06,66.06,0,0,1-11.92,2.3,5.87,5.87,0,0,0-.77.17c-.15.51-.29,1-.47,1.57a8.48,8.48,0,0,1-.45,1.08c-.13.26-.6.28-.7,0-.2-.52-.38-1.05-.53-1.58s-.16-.79-.58-1A1.35,1.35,0,0,1,353,247c-.13-.95-.28-1.89-.45-2.83-.09-.55-.24-1.08-.36-1.61.46-.95,1.58-.57,2.29-1.24,0-.41.08-.91.06-1.4a66.55,66.55,0,0,0-1.49-12.74,42.91,42.91,0,0,0-5.52-13.54,28.46,28.46,0,0,0-7.35-7.61c-4.32-3.15-9.27-4.52-14.48-5.16a36.44,36.44,0,0,0-12.1.6,32,32,0,0,0-5.15,1.61A26.37,26.37,0,0,0,297,212.23a36.67,36.67,0,0,0-5.24,10.53,57.63,57.63,0,0,0-2,8.38,51.94,51.94,0,0,0-.63,10.27,18.35,18.35,0,0,0,.68,3.47c.17.76.42,1.51.61,2.28.15.6.1.85-.48,1.06a1.4,1.4,0,0,0-.9,1.28c-.17.94-.39,1.87-.65,2.78a.93.93,0,0,1-.51.58c-.33.08-.46-.26-.51-.54-.18-.88-.34-1.77-.5-2.65-.07-.39-.12-.77-.17-1.12a2.68,2.68,0,0,0-1.85-.31L270,248.09q-26.72-.33-53.43-.69c-12.06-.17-24.12-.39-36.18-.59l-22.49-.44a21.85,21.85,0,0,0-2.55,0,10.17,10.17,0,0,1-1.25,4.22,1.48,1.48,0,0,1-1-1.38,16.44,16.44,0,0,1-.12-1.86c0-.52-.07-1-.64-1.26a.81.81,0,0,1-.5-.81,15.81,15.81,0,0,0-.66-4.32,3,3,0,0,1,.06-.74l1.73-.33a6.62,6.62,0,0,0,.14-1.1,56.53,56.53,0,0,0-1.76-13.2,39.91,39.91,0,0,0-6.08-13.29,29.26,29.26,0,0,0-9.36-8.14,19.84,19.84,0,0,0-3.42-1.45,37.61,37.61,0,0,0-8.39-1.88,39.11,39.11,0,0,0-13.42,1,25.53,25.53,0,0,0-9.36,4.53,29.45,29.45,0,0,0-4.6,4.47,32.6,32.6,0,0,0-5.48,9.64,48,48,0,0,0-3.06,12.94c-.14,1.8-.25,3.6-.35,5.4a6.37,6.37,0,0,1-.48,2.19,4,4,0,0,1-1.61-1.26,1.58,1.58,0,0,1-.26-.78,4.23,4.23,0,0,1,0-1.18,2.88,2.88,0,0,0-.93-2.74L84.5,235c-1.35-1.11-1.56-2.56-1.54-4.23.09-5.18,0-10.37.06-15.55a22.82,22.82,0,0,1,.24-2.86c0-.15.3-.38.46-.38a.63.63,0,0,1,.46.39,7.51,7.51,0,0,1,.08,1.5c-.1,2.82-.25,5.63-.33,8.44a30.57,30.57,0,0,0,1.14,7.84,13.93,13.93,0,0,0,.65,1.63,5.43,5.43,0,0,0,.42-1.1,74.85,74.85,0,0,1,2.18-11.1,49.34,49.34,0,0,1,2-5.73,35.82,35.82,0,0,1,6.57-10.95,28,28,0,0,1,12-7.94,38,38,0,0,1,19.35-1.13A28.82,28.82,0,0,1,141.57,200a30.69,30.69,0,0,1,7.07,8.55,49.73,49.73,0,0,1,5.49,15.35,73.12,73.12,0,0,1,1.45,14.61c0,.44,0,.88.06,1.25.39.5.87.39,1.31.4,4.45.11,8.9.22,13.35.3q15.55.3,31.11.58c4.68.08,9.35.13,14,.2,8.23.11,16.46.24,24.69.34l44.47.52Z"/><path d="M334.9,229.77a1,1,0,0,0,1,.58c2.93.09,5.8.69,8.72.85a38.2,38.2,0,0,1,4.49.74,2,2,0,0,1,.33.08.67.67,0,0,1,.44,1,4.63,4.63,0,0,1-.83,1,17,17,0,0,1-5.45,3.3,5.19,5.19,0,0,1-3.16.18,33,33,0,0,0-5.51-.75c-1.06-.08-2.11-.29-3.17-.4-.9-.1-1.8-.14-2.69-.18a5.33,5.33,0,0,1-2.29-.52,1.48,1.48,0,0,1-.85-2,4.7,4.7,0,0,1,.39-.93,17.5,17.5,0,0,1,2.45-3.42,39.57,39.57,0,0,1,9.54-7.44q2.21-1.23,4.47-2.37a9.82,9.82,0,0,1,1.89-.72,5.28,5.28,0,0,1,1.49-.07.59.59,0,0,1,.5.75,2.35,2.35,0,0,1-.53,1,16.35,16.35,0,0,1-4.07,3c-.65.33-1.32.63-2,1a13.57,13.57,0,0,0-4.9,4.53A5.12,5.12,0,0,0,334.9,229.77Z"/><path d="M131.29,223.46a2.92,2.92,0,0,0,1,0c2.22-.86,4.62-1,6.88-1.7a33.47,33.47,0,0,1,5.94-1.21c.11,0,.22,0,.34,0,.74-.05,1.1.35.86,1a7.61,7.61,0,0,1-.71,1.53,19.08,19.08,0,0,1-4.05,4.5,6.06,6.06,0,0,1-3.26,1.28,34.29,34.29,0,0,0-5.12,1.09c-1.2.32-2.41.58-3.61.88-.93.22-1.86.44-2.78.69a4,4,0,0,1-2,.08,1.24,1.24,0,0,1-1.07-1.14,3,3,0,0,1,0-1,13.52,13.52,0,0,1,.6-2.29,34.72,34.72,0,0,1,3.34-6.43,49.37,49.37,0,0,1,3.63-4.88,65,65,0,0,1,5.13-5.37,6.65,6.65,0,0,1,2.29-1.39.67.67,0,0,1,.93.79,5.27,5.27,0,0,1-1.22,2.56,42.11,42.11,0,0,1-3.27,3.65,17.63,17.63,0,0,0-3.41,5A4.57,4.57,0,0,0,131.29,223.46Z"/><path d="M308.74,243.69c-.49-.55-1.08-.43-1.63-.38a25.56,25.56,0,0,0-6.9,1.49c-1.1.42-2.24.74-3.37,1.07a1.18,1.18,0,0,1-1.31-.27,2,2,0,0,1,.82-1.86,17.64,17.64,0,0,1,6.32-3.8,60.76,60.76,0,0,1,6.34-1.76,29.42,29.42,0,0,1,5.85-.79,6.2,6.2,0,0,1,2.74.75,1,1,0,0,1,.48,1.56,11.05,11.05,0,0,1-.91,1.42c-1.75,2.41-3.54,4.8-5.27,7.23a27,27,0,0,1-9.49,8.19,21.73,21.73,0,0,1-3.13,1.25,3.26,3.26,0,0,1-1.32.11.64.64,0,0,1-.42-1c.59-.68,1.23-1.31,1.85-2a1.75,1.75,0,0,1,.42-.29c2.6-1.47,4.21-3.83,5.68-6.31a13.08,13.08,0,0,1,1-1.35c.68-.9,1.36-1.79,2-2.69A2.56,2.56,0,0,0,308.74,243.69Z"/><path d="M110.24,245.22a6.48,6.48,0,0,0-1.26.08,17.36,17.36,0,0,0-5.06,2.65c-1.22.9-2.4,1.86-3.62,2.76a10.31,10.31,0,0,1-1.58,1,.67.67,0,0,1-1-.7,5.15,5.15,0,0,1,.55-1.57,16.74,16.74,0,0,1,3-3.88,24.13,24.13,0,0,1,4.38-3.42,7.29,7.29,0,0,0,1.12-.75c2.21-1.93,4.9-3,7.52-4.11a4.41,4.41,0,0,1,2.49-.26,1.12,1.12,0,0,1,1,1.43,4.63,4.63,0,0,1-.26,1c-.61,1.64-1.23,3.26-1.84,4.89-.2.53-.34,1.08-.53,1.61q-1.12,3.09-2.26,6.18a6.32,6.32,0,0,1-.47.89,33.07,33.07,0,0,1-5.39,7.11,10.46,10.46,0,0,1-2.8,2.15,3.75,3.75,0,0,1-.79.29.5.5,0,0,1-.58-.46,3.51,3.51,0,0,1,.25-1.13,11,11,0,0,1,1.49-2.45,13.14,13.14,0,0,0,2.95-5.8,52.26,52.26,0,0,1,1.93-5.39C109.75,246.65,110,246,110.24,245.22Z"/><path d="M129.83,247.8c.12.53.17.91.29,1.26a33.57,33.57,0,0,1,1.58,4.79c.29,1.54.61,3.07.92,4.61.19.94.41,1.87.55,2.81.07.52.35,1.21-.33,1.5s-1-.25-1.27-.62a19.83,19.83,0,0,1-2-2.49,20.36,20.36,0,0,1-1.84-3.6,20.67,20.67,0,0,1-.93-3.74c-.56-3-1-6-2.53-8.69a11,11,0,0,1-1.3-3.46c-.12-.68-.25-1.43.3-1.91s1.38-.29,2.07,0a10,10,0,0,1,1.34.69c1.73,1.06,3.46,2.11,5.15,3.21a26.15,26.15,0,0,1,3.15,2.26,28.47,28.47,0,0,1,5.58,6.51,29,29,0,0,1,1.67,3.67,2.28,2.28,0,0,1,.14.82c0,.33.07.77-.31.88a1.18,1.18,0,0,1-.92-.16,8.74,8.74,0,0,1-1.47-1.38,10.71,10.71,0,0,0-2.48-2.27c-.38-.23-.68-.58-1-.85a6.41,6.41,0,0,0-1.24-.86,24.62,24.62,0,0,1-4.32-2.62A5.31,5.31,0,0,0,129.83,247.8Z"/><path d="M327.06,253a18.48,18.48,0,0,0,0,3.16,13.14,13.14,0,0,1,.12,3.19q-.24,2.94-.5,5.88c0,.33-.1.66-.16,1a3,3,0,0,1-2.05.14,17.9,17.9,0,0,1-1.69-9.84c.18-1.62.38-3.25.4-4.87a37.3,37.3,0,0,0-.33-4.21c-.11-1.12-.27-2.23-.42-3.35a4,4,0,0,1,.31-2.15,1,1,0,0,1,1.65-.51,9.77,9.77,0,0,1,2,1.8c1.19,1.58,2.57,3,3.84,4.48a22.4,22.4,0,0,1,3.68,5.43c.75,1.7,1.48,3.41,2.17,5.13a15.2,15.2,0,0,1,.86,5.31,4,4,0,0,1,0,.5c-.05.35-.13.76-.51.77a1.18,1.18,0,0,1-.84-.42,5.32,5.32,0,0,1-1-1.56c-.62-1.93-1.95-3.41-3.05-5a3.07,3.07,0,0,0-.53-.65,19.76,19.76,0,0,1-3.17-3.72c-.16-.22-.31-.46-.47-.69Z"/><path d="M112.12,224.23a2.86,2.86,0,0,0,.11-.72,9,9,0,0,0-.46-1.8c-1-2.42-2.15-4.81-3.21-7.23a24.61,24.61,0,0,1-.92-2.53,3,3,0,0,1-.1-1,.6.6,0,0,1,.95-.54,13,13,0,0,1,1.69,1.62c2,2.4,3.18,5.29,4.42,8.11.77,1.75,1.45,3.54,2.23,5.28a25.84,25.84,0,0,1,1.52,5.85,3.08,3.08,0,0,1,0,1.17,1.54,1.54,0,0,1-2.28,1.19,9.16,9.16,0,0,1-1.88-1.12c-3.27-2.56-6.59-5.07-9.71-7.84a18.6,18.6,0,0,1-5.14-7.8,4.16,4.16,0,0,1-.24-1.31.83.83,0,0,1,.33-.68,1,1,0,0,1,.77.09,2.8,2.8,0,0,1,.81.6,44.83,44.83,0,0,0,6.06,5.1c.73.52,1.37,1.17,2.07,1.72s1.44,1.09,2.18,1.59A3.47,3.47,0,0,0,112.12,224.23Z"/><path d="M320.76,230.33l-.21,2.52a2.91,2.91,0,0,1-.7,1.69,1.34,1.34,0,0,1-2,.23,3.31,3.31,0,0,1-.62-.56,12,12,0,0,1-1.08-1.3c-2.55-3.71-5.18-7.36-7.47-11.23a17.48,17.48,0,0,1-1.92-4.85c-.24-1-.42-2-.6-3a4.72,4.72,0,0,1,.13-2.33.6.6,0,0,1,1.07-.23,4.54,4.54,0,0,1,.7.93,55.84,55.84,0,0,0,4.35,6.82c.88,1.17,1.61,2.45,2.42,3.66a7.19,7.19,0,0,0,.83,1.06c.17.19.47.41.68.38.4,0,.39-.48.43-.8s0-.45,0-.68c0-1.29-.3-2.56-.42-3.84-.25-2.46-1-4.85-.91-7.34a7.5,7.5,0,0,1,.12-1.34.61.61,0,0,1,1.06-.26,11.41,11.41,0,0,1,1.1,1.88,23.73,23.73,0,0,1,1.71,6.34c.44,3.06.8,6.13,1.15,9.2.12,1,.12,2,.17,3Z"/><path d="M80.14,215.75H39.36c-.67,0-1.35,0-2-.05a1,1,0,0,1-.87-.89c-.15-1,.29-1.65,1.36-1.68,2.08-.06,4.16-.06,6.24-.06H78.19a13.41,13.41,0,0,1,1.68.06.94.94,0,0,1,.87,1A2,2,0,0,1,80.14,215.75Z"/><path d="M54.19,219.74l2-.06c3.93,0,7.87,0,11.81,0,2.81,0,5.62-.09,8.43-.13.33,0,.67,0,1,0,1.2,0,1.53.41,1.26,1.53a8.12,8.12,0,0,1-.4,1c-.53,0-1,.08-1.52.08q-9,0-18.05-.12c-1.29,0-2.58-.09-3.87-.16-.75,0-1-.31-.83-1.09C54,220.47,54.09,220.2,54.19,219.74Z"/>
    </g>
  </g>
</svg>
