<?xml version="1.0" encoding="UTF-8" standalone="no"?>
<svg
   xmlns:dc="http://purl.org/dc/elements/1.1/"
   xmlns:cc="http://creativecommons.org/ns#"
   xmlns:rdf="http://www.w3.org/1999/02/22-rdf-syntax-ns#"
   xmlns:svg="http://www.w3.org/2000/svg"
   xmlns="http://www.w3.org/2000/svg"
   xmlns:sodipodi="http://sodipodi.sourceforge.net/DTD/sodipodi-0.dtd"
   xmlns:inkscape="http://www.inkscape.org/namespaces/inkscape"
   viewBox="0 0 410.23 401.02"
   version="1.1"
   id="svg845"
   sodipodi:docname="Voiture.svg"
   inkscape:version="0.92.4 (5da689c313, 2019-01-14)">
  <metadata
     id="metadata849">
    <rdf:RDF>
      <cc:Work
         rdf:about="">
        <dc:format>image/svg+xml</dc:format>
        <dc:type
           rdf:resource="http://purl.org/dc/dcmitype/StillImage" />
      </cc:Work>
    </rdf:RDF>
  </metadata>
  <sodipodi:namedview
     pagecolor="#ffffff"
     bordercolor="#666666"
     borderopacity="1"
     objecttolerance="10"
     gridtolerance="10"
     guidetolerance="10"
     inkscape:pageopacity="0"
     inkscape:pageshadow="2"
     inkscape:window-width="1920"
     inkscape:window-height="1001"
     id="namedview847"
     showgrid="false"
     inkscape:zoom="1.4247227"
     inkscape:cx="103.54902"
     inkscape:cy="213.88585"
     inkscape:window-x="-9"
     inkscape:window-y="1071"
     inkscape:window-maximized="1"
     inkscape:current-layer="svg845" />
  <defs
     id="defs817">
    <style
       id="style815">.cls-1{fill:#fff;}</style>
  </defs>
  <g
     id="Calque_2"
     data-name="Calque 2"
     transform="translate(161.99618,5.6251211)">
    <g
       id="Calque_1-2"
       data-name="Calque 1">
      <path
         id="path841"
         d="m -122.08191,213.98765 2,-0.06 c 3.93,0 7.87,0 11.81,0 2.81,0 5.62,-0.09 8.429996,-0.13 0.33,0 0.67,0 1,0 1.2,0 1.53,0.41 1.26,1.53 a 8.12,8.12 0 0 1 -0.4,1 c -0.53,0 -1,0.08 -1.52,0.08 q -8.999996,0 -18.049996,-0.12 c -1.29,0 -2.58,-0.09 -3.87,-0.16 -0.75,0 -1,-0.31 -0.83,-1.09 -0.02,-0.32 0.07,-0.59 0.17,-1.05 z m 25.949996,-3.99 h -40.779996 c -0.67,0 -1.35,0 -2,-0.05 a 1,1 0 0 1 -0.87,-0.89 c -0.15,-1 0.29,-1.65 1.36,-1.68 2.08,-0.06 4.16,-0.06 6.24,-0.06 h 34.099996 a 13.41,13.41 0 0 1 1.68,0.06 0.94,0.94 0 0 1 0.87,1 2,2 0 0 1 -0.6,1.62 z m 240.620004,14.58 -0.21,2.52 a 2.91,2.91 0 0 1 -0.7,1.69 1.34,1.34 0 0 1 -2,0.23 3.31,3.31 0 0 1 -0.62,-0.56 12,12 0 0 1 -1.08,-1.3 c -2.55,-3.71 -5.18,-7.36 -7.47,-11.23 a 17.48,17.48 0 0 1 -1.92,-4.85 c -0.24,-1 -0.42,-2 -0.6,-3 a 4.72,4.72 0 0 1 0.13,-2.33 0.6,0.6 0 0 1 1.07,-0.23 4.54,4.54 0 0 1 0.7,0.93 55.84,55.84 0 0 0 4.35,6.82 c 0.88,1.17 1.61,2.45 2.42,3.66 a 7.19,7.19 0 0 0 0.83,1.06 c 0.17,0.19 0.47,0.41 0.68,0.38 0.4,0 0.39,-0.48 0.43,-0.8 0.04,-0.32 0,-0.45 0,-0.68 0,-1.29 -0.3,-2.56 -0.42,-3.84 -0.25,-2.46 -1,-4.85 -0.91,-7.34 a 7.5,7.5 0 0 1 0.12,-1.34 0.61,0.61 0 0 1 1.06,-0.26 11.41,11.41 0 0 1 1.1,1.88 23.73,23.73 0 0 1 1.71,6.34 c 0.44,3.06 0.8,6.13 1.15,9.2 0.12,1 0.12,2 0.17,3 z m -208.640004,-6.1 a 2.86,2.86 0 0 0 0.11,-0.72 9,9 0 0 0 -0.46,-1.8 c -1,-2.42 -2.15,-4.81 -3.21,-7.23 a 24.61,24.61 0 0 1 -0.92,-2.53 3,3 0 0 1 -0.1,-1 0.6,0.6 0 0 1 0.95,-0.54 13,13 0 0 1 1.69,1.62 c 2,2.4 3.18,5.29 4.42,8.11 0.77,1.75 1.45,3.54 2.23,5.28 a 25.84,25.84 0 0 1 1.52,5.85 3.08,3.08 0 0 1 0,1.17 1.54,1.54 0 0 1 -2.28,1.19 9.16,9.16 0 0 1 -1.88,-1.12 c -3.27,-2.56 -6.59,-5.07 -9.71,-7.84 a 18.6,18.6 0 0 1 -5.14,-7.8 4.16,4.16 0 0 1 -0.24,-1.31 0.83,0.83 0 0 1 0.33,-0.68 1,1 0 0 1 0.77,0.09 2.8,2.8 0 0 1 0.81,0.6 44.83,44.83 0 0 0 6.06,5.1 c 0.73,0.52 1.37,1.17 2.07,1.72 0.7,0.55 1.44,1.09 2.18,1.59 a 3.47,3.47 0 0 0 0.8,0.25 z m 214.940004,28.77 a 18.48,18.48 0 0 0 0,3.16 13.14,13.14 0 0 1 0.12,3.19 q -0.24,2.94 -0.5,5.88 c 0,0.33 -0.1,0.66 -0.16,1 a 3,3 0 0 1 -2.05,0.14 17.9,17.9 0 0 1 -1.69,-9.84 c 0.18,-1.62 0.38,-3.25 0.4,-4.87 a 37.3,37.3 0 0 0 -0.33,-4.21 c -0.11,-1.12 -0.27,-2.23 -0.42,-3.35 a 4,4 0 0 1 0.31,-2.15 1,1 0 0 1 1.65,-0.51 9.77,9.77 0 0 1 2,1.8 c 1.19,1.58 2.57,3 3.84,4.48 a 22.4,22.4 0 0 1 3.68,5.43 c 0.75,1.7 1.48,3.41 2.17,5.13 a 15.2,15.2 0 0 1 0.86,5.31 4,4 0 0 1 0,0.5 c -0.05,0.35 -0.13,0.76 -0.51,0.77 a 1.18,1.18 0 0 1 -0.84,-0.42 5.32,5.32 0 0 1 -1,-1.56 c -0.62,-1.93 -1.95,-3.41 -3.05,-5 a 3.07,3.07 0 0 0 -0.53,-0.65 19.76,19.76 0 0 1 -3.17,-3.72 c -0.16,-0.22 -0.31,-0.46 -0.47,-0.69 z m -197.230004,-5.2 c 0.12,0.53 0.17,0.91 0.29,1.26 a 33.57,33.57 0 0 1 1.58,4.79 c 0.29,1.54 0.61,3.07 0.92,4.61 0.19,0.94 0.41,1.87 0.55,2.81 0.07,0.52 0.35,1.21 -0.33,1.5 -0.68,0.29 -1,-0.25 -1.27,-0.62 a 19.83,19.83 0 0 1 -2,-2.49 20.36,20.36 0 0 1 -1.84,-3.6 20.67,20.67 0 0 1 -0.93,-3.74 c -0.56,-3 -1,-6 -2.53,-8.69 a 11,11 0 0 1 -1.3,-3.46 c -0.12,-0.68 -0.25,-1.43 0.3,-1.91 0.55,-0.48 1.38,-0.29 2.07,0 a 10,10 0 0 1 1.34,0.69 c 1.73,1.06 3.46,2.11 5.15,3.21 a 26.15,26.15 0 0 1 3.15,2.26 28.47,28.47 0 0 1 5.58,6.51 29,29 0 0 1 1.67,3.67 2.28,2.28 0 0 1 0.14,0.82 c 0,0.33 0.07,0.77 -0.31,0.88 a 1.18,1.18 0 0 1 -0.92,-0.16 8.74,8.74 0 0 1 -1.47,-1.38 10.71,10.71 0 0 0 -2.48,-2.27 c -0.38,-0.23 -0.68,-0.58 -1,-0.85 a 6.41,6.41 0 0 0 -1.24,-0.86 24.62,24.62 0 0 1 -4.32,-2.62 5.31,5.31 0 0 0 -0.8,-0.36 z m -19.59,-2.58 a 6.48,6.48 0 0 0 -1.26,0.08 17.36,17.36 0 0 0 -5.06,2.65 c -1.22,0.9 -2.4,1.86 -3.62,2.76 a 10.31,10.31 0 0 1 -1.58,1 0.67,0.67 0 0 1 -1,-0.7 5.15,5.15 0 0 1 0.55,-1.57 16.74,16.74 0 0 1 3,-3.88 24.13,24.13 0 0 1 4.38,-3.42 7.29,7.29 0 0 0 1.12,-0.75 c 2.21,-1.93 4.9,-3 7.52,-4.11 a 4.41,4.41 0 0 1 2.49,-0.26 1.12,1.12 0 0 1 1,1.43 4.63,4.63 0 0 1 -0.26,1 c -0.61,1.64 -1.23,3.26 -1.84,4.89 -0.2,0.53 -0.34,1.08 -0.53,1.61 q -1.12,3.09 -2.26,6.18 a 6.32,6.32 0 0 1 -0.47,0.89 33.07,33.07 0 0 1 -5.39,7.11 10.46,10.46 0 0 1 -2.8,2.15 3.75,3.75 0 0 1 -0.79,0.29 0.5,0.5 0 0 1 -0.58,-0.46 3.51,3.51 0 0 1 0.25,-1.13 11,11 0 0 1 1.49,-2.45 13.14,13.14 0 0 0 2.95,-5.8 52.26,52.26 0 0 1 1.93,-5.39 c 0.27,-0.69 0.52,-1.34 0.76,-2.12 z m 198.500004,-1.53 c -0.49,-0.55 -1.08,-0.43 -1.63,-0.38 a 25.56,25.56 0 0 0 -6.9,1.49 c -1.1,0.42 -2.24,0.74 -3.37,1.07 a 1.18,1.18 0 0 1 -1.31,-0.27 2,2 0 0 1 0.82,-1.86 17.64,17.64 0 0 1 6.32,-3.8 60.76,60.76 0 0 1 6.34,-1.76 29.42,29.42 0 0 1 5.85,-0.79 6.2,6.2 0 0 1 2.74,0.75 1,1 0 0 1 0.48,1.56 11.05,11.05 0 0 1 -0.91,1.42 c -1.75,2.41 -3.54,4.8 -5.27,7.23 a 27,27 0 0 1 -9.49,8.19 21.73,21.73 0 0 1 -3.13,1.25 3.26,3.26 0 0 1 -1.32,0.11 0.64,0.64 0 0 1 -0.42,-1 c 0.59,-0.68 1.23,-1.31 1.85,-2 a 1.75,1.75 0 0 1 0.42,-0.29 c 2.6,-1.47 4.21,-3.83 5.68,-6.31 a 13.08,13.08 0 0 1 1,-1.35 c 0.68,-0.9 1.36,-1.79 2,-2.69 a 2.56,2.56 0 0 0 0.25,-0.57 z m -177.450004,-20.23 a 2.92,2.92 0 0 0 1,0 c 2.22,-0.86 4.62,-1 6.88,-1.7 a 33.47,33.47 0 0 1 5.94,-1.21 c 0.11,0 0.22,0 0.34,0 0.74,-0.05 1.1,0.35 0.86,1 a 7.61,7.61 0 0 1 -0.71,1.53 19.08,19.08 0 0 1 -4.05,4.5 6.06,6.06 0 0 1 -3.26,1.28 34.29,34.29 0 0 0 -5.12,1.09 c -1.2,0.32 -2.41,0.58 -3.61,0.88 -0.93,0.22 -1.86,0.44 -2.78,0.69 a 4,4 0 0 1 -2,0.08 1.24,1.24 0 0 1 -1.07,-1.14 3,3 0 0 1 0,-1 13.52,13.52 0 0 1 0.6,-2.29 34.72,34.72 0 0 1 3.34,-6.43 49.37,49.37 0 0 1 3.63,-4.88 65,65 0 0 1 5.13,-5.37 6.65,6.65 0 0 1 2.29,-1.39 0.67,0.67 0 0 1 0.93,0.79 5.27,5.27 0 0 1 -1.22,2.56 42.11,42.11 0 0 1 -3.27,3.65 17.63,17.63 0 0 0 -3.41,5 4.57,4.57 0 0 0 -0.44,2.36 z m 203.610004,6.31 a 1,1 0 0 0 1,0.58 c 2.93,0.09 5.8,0.69 8.72,0.85 a 38.2,38.2 0 0 1 4.49,0.74 2,2 0 0 1 0.33,0.08 0.67,0.67 0 0 1 0.44,1 4.63,4.63 0 0 1 -0.83,1 17,17 0 0 1 -5.45,3.3 5.19,5.19 0 0 1 -3.16,0.18 33,33 0 0 0 -5.51,-0.75 c -1.06,-0.08 -2.11,-0.29 -3.17,-0.4 -0.9,-0.1 -1.8,-0.14 -2.69,-0.18 a 5.33,5.33 0 0 1 -2.29,-0.52 1.48,1.48 0 0 1 -0.85,-2 4.7,4.7 0 0 1 0.39,-0.93 17.5,17.5 0 0 1 2.45,-3.42 39.57,39.57 0 0 1 9.54,-7.44 q 2.21,-1.23 4.47,-2.37 a 9.82,9.82 0 0 1 1.89,-0.72 5.28,5.28 0 0 1 1.49,-0.07 0.59,0.59 0 0 1 0.5,0.75 2.35,2.35 0 0 1 -0.53,1 16.35,16.35 0 0 1 -4.07,3 c -0.65,0.33 -1.32,0.63 -2,1 a 13.57,13.57 0 0 0 -4.9,4.53 5.12,5.12 0 0 0 -0.26,0.79 z m -48.28,12.31 c 0.05,-0.67 0.12,-1.11 0.11,-1.55 a 76.82,76.82 0 0 1 0.78,-10.28 70.66,70.66 0 0 1 2.07,-10.6 72.66,72.66 0 0 1 2.55,-7 33.43,33.43 0 0 1 6.32,-10.11 27.89,27.89 0 0 1 11.41,-7.54 36.68,36.68 0 0 1 13.81,-1.9 34.72,34.72 0 0 1 9,1.43 29,29 0 0 1 16,12 38.28,38.28 0 0 1 4,7.78 49,49 0 0 1 2.46,8.42 c 0.31,1.77 0.7,3.53 1,5.31 a 73.6,73.6 0 0 1 0.7,11.3 2.82,2.82 0 0 0 0.2,1.68 c 0.14,0 0.31,0.13 0.45,0.1 a 49.18,49.18 0 0 0 9.15,-2.35 5.25,5.25 0 0 0 3.62,-4.64 c 0.16,-1.74 0.29,-3.49 0.33,-5.23 0.11,-4.46 -0.08,-8.9 -0.35,-13.35 v -0.33 c -0.05,-0.93 -0.05,-0.93 0.88,-1.63 a 10,10 0 0 0 -0.29,-2.41 c -0.26,0.24 -0.46,0.35 -0.55,0.52 a 4.87,4.87 0 0 1 -3.55,2.33 11.42,11.42 0 0 1 -5.2,0 6.17,6.17 0 0 1 -4.29,-3 13.21,13.21 0 0 1 -1.11,-2.63 26.33,26.33 0 0 1 -0.71,-9.88 5.75,5.75 0 0 1 0.14,-0.83 c 0.6,-2.41 2,-3.4 4.44,-3.14 a 11.72,11.72 0 0 1 3.45,0.76 c 0.93,0.4 1.88,0.77 2.81,1.17 a 1.62,1.62 0 0 1 1,1.78 3.25,3.25 0 0 1 -0.41,1.53 1.33,1.33 0 0 1 -1.35,-0.22 18.81,18.81 0 0 0 -4.81,-1.56 5,5 0 0 0 -2.67,0 1.65,1.65 0 0 0 -1.35,1.7 c 0,1.41 0.14,2.82 0.13,4.22 a 8.7,8.7 0 0 0 1,3.71 5.41,5.41 0 0 0 3.69,3 10.13,10.13 0 0 0 5.67,0 3.83,3.83 0 0 0 2.28,-1.37 4.89,4.89 0 0 0 0.91,-3 20.22,20.22 0 0 0 -4,-11 9.19,9.19 0 0 0 -3.66,-2.93 2.21,2.21 0 0 1 -1.32,-1.43 c -0.25,-0.68 -0.55,-1.35 -0.87,-2 a 1.37,1.37 0 0 0 -1.21,-0.78 c -3.36,-0.35 -6.72,-0.71 -10.08,-1.1 a 26.82,26.82 0 0 1 -2.65,-0.49 4,4 0 0 1 -2.82,-2 10.71,10.71 0 0 1 -1.12,-2.13 3,3 0 0 1 0.93,-0.44 10.69,10.69 0 0 1 2.19,0 c 2.69,0.27 5.37,0.6 8.06,0.9 a 4.44,4.44 0 0 0 0.63,0 c 0.14,-0.42 -0.13,-0.56 -0.36,-0.71 a 29,29 0 0 0 -6.45,-2.91 78.38,78.38 0 0 0 -10.11,-2.68 c -1.71,-0.35 -3.4,-0.79 -5.11,-1.14 -3.2,-0.66 -6.4,-1.26 -9.64,-1.67 -3.41,-0.43 -6.81,-0.93 -10.22,-1.35 -2.74,-0.33 -5.48,-0.59 -8.23,-0.87 -1.57,-0.16 -3.14,-0.29 -4.71,-0.42 a 5.44,5.44 0 0 0 -0.92,0.05 c 0.41,0.84 1.44,0.92 1.65,1.79 -0.67,0.44 -1.23,0 -1.8,-0.06 -0.57,-0.06 -1.11,-0.15 -1.66,-0.27 -0.55,-0.12 -1.18,-0.31 -1.87,-0.5 -0.16,0.35 -0.28,0.65 -0.42,0.94 a 6,6 0 0 1 -5.86,3.82 c -2.31,0 -4.62,-0.17 -6.92,-0.29 -3.94,-0.21 -7.880004,-0.46 -11.820004,-0.67 -3.09,-0.16 -6.19,-0.29 -9.28,-0.47 -5.12,-0.28 -10.24,-0.6 -15.36,-0.87 -5.57,-0.3 -11.14,-0.55 -16.71,-0.83 -1.07,-0.06 -2.14,-0.16 -3.2,-0.23 l -12,-0.67 c -4.56,-0.25 -9.12,-0.52 -13.67,-0.78 l -10.8,-0.59 -7.7600005,-0.44 c -3.66,-0.22 -7.32,-0.43 -11,-0.66 -2.42,-0.15 -4.8299995,-0.33 -7.2499995,-0.49 -2.92,-0.2 -5.85,-0.37 -8.77,-0.59 a 19.73,19.73 0 0 1 -5.64,-1 7,7 0 0 0 -0.82,-0.17 29.35,29.35 0 0 1 -8.49,-3.19 c -1.36,-0.8 -2.78,-1.5 -4.19,-2.19 a 20.62,20.62 0 0 1 -4.59,-3.14 6.09,6.09 0 0 1 -2.19,-5.09 c 0.07,-1.29 0,-2.6 0.21,-3.88 a 15,15 0 0 1 0.73,-2.76 2.66,2.66 0 0 1 1.54,-1.49 38.42,38.42 0 0 1 4.05,-1.68 c 3.11,-1 6.24,-1.92 9.39,-2.77 a 25.48,25.48 0 0 1 4.65,-0.83 c 3.93,-0.32 7.87,-0.54 11.81,-0.74 4.84,-0.24 9.6799995,-0.47 14.5199995,-0.6 4.17,-0.11 8.35,-0.08 12.5200005,-0.09 4.62,0 9.24,0 13.86,0 2.88,0 5.75,0.15 8.62,0.24 q 6.17,0.21 12.34,0.45 c 1.63,0.06 3.27,0.1 4.89,0.28 a 20.89,20.89 0 0 1 3.1,0.75 c 0.15,0 0.25,0.28 0.48,0.58 a 8.79,8.79 0 0 1 -1.15,0.12 c -2.3,-0.11 -4.61,-0.24 -6.91,-0.37 h -0.68 c -6.82,-0.16 -13.63,-0.34 -20.45,-0.47 -4,-0.07 -8,-0.13 -12,-0.1 -5.9100005,0 -11.8300005,0.18 -17.7500005,0.31 -2.42,0 -4.85,0.08 -7.2599995,0.3 -4.21,0.38 -8.44,0.38 -12.64,0.94 a 51.22,51.22 0 0 0 -6.26,1.33 c -2.61,0.68 -5.21,1.44 -7.77,2.31 -0.64,0.21 -1.29,0.39 -1.92,0.64 a 5.5,5.5 0 0 0 -2.73,1.87 8,8 0 0 0 -1.64,4.35 13,13 0 0 0 0.51,3.67 6.43,6.43 0 0 0 2.53,3.69 27.24,27.24 0 0 0 3.67,2.4 c 1.66,0.83 3.28,1.75 4.93,2.61 a 19.14,19.14 0 0 0 7.58,2.14 c 5.34,0.37 10.68,0.71 15.9999995,1 q 6.06,0.39 12.15,0.73 l 12.1400005,0.67 c 3.27,0.18 6.53,0.4 9.79,0.58 4.73,0.26 9.45,0.49 14.18,0.76 4.38,0.25 8.77,0.56 13.15,0.82 3.61,0.2 7.21,0.35 10.81,0.54 1.74,0.1 3.49,0.24 5.23,0.33 6.75,0.34 13.51,0.64 20.26,1 2.53,0.13 5.06,0.36 7.59,0.54 l 0.67,0.05 10.470004,0.48 c 0.45,0 0.9,0 1.36,0 a 5.46,5.46 0 0 0 5.63,-3.49 1.07,1.07 0 0 1 1.55,-0.74 c 0.09,0 0.21,0 0.33,-0.07 0.13,-0.43 -0.23,-0.57 -0.48,-0.73 -2,-1.26 -4,-2.54 -6,-3.75 -3.72,-2.24 -7.43,-4.47 -11.200004,-6.63 q -4.9,-2.81 -9.92,-5.44 c -3.64,-1.91 -7.29,-3.8 -11,-5.57 a 129.37,129.37 0 0 0 -15.15,-6.19 c -3.05,-1 -6.15,-1.83 -9.26,-2.59 -2.73,-0.67 -5.49,-1.27 -8.26,-1.74 -2.55,-0.42 -5.14,-0.66 -7.72,-0.9 a 185.74,185.74 0 0 0 -19.6,-0.46 c -5.07,0.06 -10.1400005,0.2 -15.2100005,0.38 -4.9,0.19 -9.8,0.4 -14.6899995,0.74 -3.71,0.25 -7.4,0.72 -11.1,1.08 a 92.16,92.16 0 0 0 -20.5,4.86 91.08,91.08 0 0 0 -10.62,4.77 11.83,11.83 0 0 0 -1.43,0.9 c -2.15,1.45 -4.28,2.92 -6.44,4.37 a 19.84,19.84 0 0 0 -3.44,3 q -3.89,4.13 -7.83,8.19 a 19.79,19.79 0 0 1 -3.59,3 14.75,14.75 0 0 0 -5,5.41 22.61,22.61 0 0 0 -2.76,9.37 1.57,1.57 0 0 0 0.16,0.43 2.2,2.2 0 0 0 0.71,0.12 c 1.73,-0.2 3.48,-0.35 5.19,-0.68 a 21.46,21.46 0 0 0 6.59,-2.56 8.57,8.57 0 0 0 2.75,-2.71 16,16 0 0 0 2.5,-6.23 1.84,1.84 0 0 0 -1.44,-2.45 14.46,14.46 0 0 0 -1.64,-0.36 0.88,0.88 0 0 1 -0.77,-0.95 3,3 0 0 1 0,-0.67 c 0.14,-0.93 0.59,-1.29 1.5,-1.19 0.34,0 0.66,0.16 1,0.2 1.86,0.26 2.93,1.6 2.71,3.79 a 23.85,23.85 0 0 1 -1.77,6.85 c -0.25,0.62 -0.53,1.24 -0.82,1.85 a 11,11 0 0 1 -6.73,6 32.52,32.52 0 0 1 -8.28,1.53 l -1.45,0.08 a 1.38,1.38 0 0 0 -0.35,1.46 1.77,1.77 0 0 1 -0.93,2 10.86,10.86 0 0 0 -4,4.88 28.5,28.5 0 0 0 -2.2,7.77 10.7,10.7 0 0 1 -0.61,2.48 7.62,7.62 0 0 1 -0.14,-1 c 0,-2.48 -0.06,-5 0,-7.44 a 4.87,4.87 0 0 1 0.37,-1.8 11.36,11.36 0 0 1 3.71,-4.93 l 0.41,-0.29 a 1.61,1.61 0 0 0 0.8,-1.71 25.06,25.06 0 0 1 1,-9.19 17.79,17.79 0 0 1 7.8,-10.85 11.3,11.3 0 0 0 2,-1.77 c 1.87,-2 3.68,-4 5.54,-5.94 0.92,-1 1.91,-1.91 2.83,-2.9 a 66.66,66.66 0 0 1 9.8,-8.26 12.35,12.35 0 0 1 1.91,-1.08 c 0.91,-0.45 1.85,-0.84 2.75,-1.3 a 79.37,79.37 0 0 1 13.6,-5.51 c 2.32,-0.7 4.69,-1.21 7,-1.79 1.09,-0.28 2.19,-0.5 3.28,-0.8 a 50,50 0 0 1 5.83,-1 c 1.28,-0.18 2.56,-0.39 3.84,-0.61 a 52.11,52.11 0 0 1 7.37,-0.83 c 4.1099995,-0.13 8.2199995,-0.36 12.32999952,-0.54 1.29,-0.05 2.58999998,-0.06 3.88999998,-0.09 5,-0.08 10.0000005,-0.25 15.0000005,-0.22 a 144.71,144.71 0 0 1 33.83,3.84 c 4,0.92 8,2 11.9,3.15 1.67,0.5 3.32,1.08 5,1.64 3.47,1.18 6.83,2.63 10.19,4.08 4,1.71 7.86,3.65 11.72,5.62 3.26,1.66 6.46,3.44 9.660004,5.22 q 5.39,3 10.7,6.11 c 2.67,1.57 5.29,3.23 7.92,4.87 a 3.48,3.48 0 0 0 1.57,0.52 c 4.1,0.33 8.2,0.6 12.29,1 4.93,0.54 9.84,1.21 14.75,1.88 2.85,0.39 5.69,0.8 8.51,1.37 3.42,0.68 6.81,1.49 10.2,2.32 2.19,0.53 4.38,1.09 6.52,1.78 a 31.11,31.11 0 0 1 10.42,5.4 14.94,14.94 0 0 1 3.47,4.1 13.6,13.6 0 0 1 1,2.66 2.1,2.1 0 0 0 1.18,1.34 11.65,11.65 0 0 1 5.18,5.16 20.88,20.88 0 0 1 2.46,7.15 c 0.61,3.9 0.94,7.83 1.24,11.77 0.07,1 0.23,1.89 0.34,2.84 0.05,0.51 0.1,1 0.1,1.52 q 0,10.4 0,20.8 c 0,2.28 -0.13,2.05 -1.67,3.14 a 11.5,11.5 0 0 1 -3.53,1.57 66.06,66.06 0 0 1 -11.92,2.3 5.87,5.87 0 0 0 -0.77,0.17 c -0.15,0.51 -0.29,1 -0.47,1.57 a 8.48,8.48 0 0 1 -0.45,1.08 c -0.13,0.26 -0.6,0.28 -0.7,0 -0.2,-0.52 -0.38,-1.05 -0.53,-1.58 -0.15,-0.53 -0.16,-0.79 -0.58,-1 a 1.35,1.35 0 0 1 -0.7,-1.18 c -0.13,-0.95 -0.28,-1.89 -0.45,-2.83 -0.09,-0.55 -0.24,-1.08 -0.36,-1.61 0.46,-0.95 1.58,-0.57 2.29,-1.24 0,-0.41 0.08,-0.91 0.06,-1.4 a 66.55,66.55 0 0 0 -1.49,-12.74 42.91,42.91 0 0 0 -5.52,-13.54 28.46,28.46 0 0 0 -7.35,-7.61 c -4.32,-3.15 -9.27,-4.52 -14.48,-5.16 a 36.44,36.44 0 0 0 -12.1,0.6 32,32 0 0 0 -5.15,1.61 26.37,26.37 0 0 0 -11.45,9.15 36.67,36.67 0 0 0 -5.24,10.53 57.63,57.63 0 0 0 -2,8.38 51.94,51.94 0 0 0 -0.63,10.27 18.35,18.35 0 0 0 0.68,3.47 c 0.17,0.76 0.42,1.51 0.61,2.28 0.15,0.6 0.1,0.85 -0.48,1.06 a 1.4,1.4 0 0 0 -0.9,1.28 c -0.17,0.94 -0.39,1.87 -0.65,2.78 a 0.93,0.93 0 0 1 -0.51,0.58 c -0.33,0.08 -0.46,-0.26 -0.51,-0.54 -0.18,-0.88 -0.34,-1.77 -0.5,-2.65 -0.07,-0.39 -0.12,-0.77 -0.17,-1.12 a 2.68,2.68 0 0 0 -1.85,-0.31 l -14.850004,-0.15 q -26.72,-0.33 -53.43,-0.69 c -12.06,-0.17 -24.12,-0.39 -36.1800005,-0.59 l -22.4899995,-0.44 a 21.85,21.85 0 0 0 -2.55,0 10.17,10.17 0 0 1 -1.25,4.22 1.48,1.48 0 0 1 -1,-1.38 16.44,16.44 0 0 1 -0.12,-1.86 c 0,-0.52 -0.07,-1 -0.64,-1.26 a 0.81,0.81 0 0 1 -0.5,-0.81 15.81,15.81 0 0 0 -0.66,-4.32 3,3 0 0 1 0.06,-0.74 l 1.73,-0.33 a 6.62,6.62 0 0 0 0.14,-1.1 56.53,56.53 0 0 0 -1.76,-13.2 39.91,39.91 0 0 0 -6.08,-13.29 29.26,29.26 0 0 0 -9.36,-8.14 19.84,19.84 0 0 0 -3.42,-1.45 37.61,37.61 0 0 0 -8.39,-1.88 39.11,39.11 0 0 0 -13.42,1 25.53,25.53 0 0 0 -9.36,4.53 29.45,29.45 0 0 0 -4.6,4.47 32.6,32.6 0 0 0 -5.48,9.64 48,48 0 0 0 -3.06,12.94 c -0.14,1.8 -0.25,3.6 -0.35,5.4 a 6.37,6.37 0 0 1 -0.48,2.19 4,4 0 0 1 -1.61,-1.26 1.58,1.58 0 0 1 -0.26,-0.78 4.23,4.23 0 0 1 0,-1.18 2.88,2.88 0 0 0 -0.93,-2.74 l -0.05,-0.04 c -1.35,-1.11 -1.56,-2.56 -1.54,-4.23 0.09,-5.18 0,-10.37 0.06,-15.55 a 22.82,22.82 0 0 1 0.24,-2.86 c 0,-0.15 0.3,-0.38 0.46,-0.38 a 0.63,0.63 0 0 1 0.46,0.39 7.51,7.51 0 0 1 0.08,1.5 c -0.1,2.82 -0.25,5.63 -0.33,8.44 a 30.57,30.57 0 0 0 1.14,7.84 13.93,13.93 0 0 0 0.65,1.63 5.43,5.43 0 0 0 0.42,-1.1 74.85,74.85 0 0 1 2.18,-11.1 49.34,49.34 0 0 1 2,-5.73 35.82,35.82 0 0 1 6.57,-10.95 28,28 0 0 1 12,-7.94 38,38 0 0 1 19.35,-1.13 28.82,28.82 0 0 1 13.33,6.17 30.69,30.69 0 0 1 7.07,8.55 49.73,49.73 0 0 1 5.49,15.35 73.12,73.12 0 0 1 1.45,14.61 c 0,0.44 0,0.88 0.06,1.25 0.39,0.5 0.87,0.39 1.31,0.4 4.45,0.11 8.9,0.22 13.3499995,0.3 q 15.55,0.3 31.1100005,0.58 c 4.68,0.08 9.35,0.13 14,0.2 8.23,0.11 16.46,0.24 24.69,0.34 l 44.470004,0.52 z"
         inkscape:connector-curvature="0" />
    </g>
  </g>
  <g
     inkscape:groupmode="layer"
     id="layer1"
     inkscape:label="couche2"
     style="display:inline" />
  <g
     inkscape:groupmode="layer"
     id="layer2"
     inkscape:label="couche1"
     style="display:inline" />
</svg>
